<svg viewBox="0 0 535.7 394.88" xmlns="http://www.w3.org/2000/svg"><path d="m31.88 178.46a15.33 15.33 0 0 0 -4.68-11.26 15.34 15.34 0 0 0 -11.26-4.67 15.31 15.31 0 0 0 -11.26 4.67 15.89 15.89 0 0 0 0 22.52 15.28 15.28 0 0 0 11.26 4.68 15.31 15.31 0 0 0 11.26-4.68 15.28 15.28 0 0 0 4.68-11.26m121.29-115.81a10 10 0 1 0 7 2.92 9.58 9.58 0 0 0 -7-2.92m220.38 78.2a23.6 23.6 0 0 1 -2.27-7.85 64.3 64.3 0 0 0 -15.28-23.54 70 70 0 0 0 -9.37-7.88q-16.08-11.25-36.81-11.25t-36.82 11.25a65 65 0 0 0 -5.6 4.36c-.67-1.47-1.4-2.92-2.21-4.36a66.93 66.93 0 0 0 -11.29-14.85 65.28 65.28 0 0 0 -92.34 0 67.13 67.13 0 0 0 -11.33 14.85c-.66 1.2-1.29 2.43-1.87 3.68q-.69 1.47-1.32 3a33.37 33.37 0 0 1 -9.13 11.59q-7.62 6.09-19.3 7.9c-.39 0-.77.09-1.15.16a31.59 31.59 0 0 0 -10.83 3.85 35 35 0 0 0 -7.22 5.58 32.53 32.53 0 0 0 -9.89 22.78 17.66 17.66 0 0 0 -14.9 17.38 18.28 18.28 0 0 0 .37 3.75q.34 4.71-4.09 7.58l-.08.06a2.85 2.85 0 0 0 -.37.23 89.63 89.63 0 0 0 -16.37 13q-25.33 25.38-25.32 61.19a88.58 88.58 0 0 0 3.36 24.69q4.08 18.88-10.79 32.2a34 34 0 0 0 -2.66 2.22c-.53.46-1 .94-1.54 1.44a38 38 0 0 0 0 53.75 36.56 36.56 0 0 0 26 11.14h446.93a26.78 26.78 0 0 0 19.94-43.89c-.33-.4-.66-.78-1-1.15a28.09 28.09 0 0 1 -6.82-21c.05-.49.1-1 .14-1.46.19-2.29.29-4.61.29-7q0-30.86-21.81-52.69a74.9 74.9 0 0 0 -21.8-15.36 33.35 33.35 0 0 1 -9.27-3.46q-9.32-5.34-11.52-16.64c-.08-.5-.17-1-.27-1.5a49.13 49.13 0 0 0 -39.94-38.6 22.55 22.55 0 0 0 -2.21-29.26 22 22 0 0 0 -8.71-5.46l-.85-.27q-9-2.88-12.67-10.15m-233.79 121.07a13.27 13.27 0 1 1 9.4 3.91 12.77 12.77 0 0 1 -9.4-3.91m321.79-50.31a10 10 0 1 0 -2.92 7 9.54 9.54 0 0 0 2.92-7z" fill="#7fe0ac" fill-opacity=".25"/><path d="m354.89 369a22.35 22.35 0 0 0 -8.85 4.29 22.73 22.73 0 0 0 -1.81-9.72 18 18 0 0 0 -1.61-2.92 18.17 18.17 0 0 0 -2.61 2.07 24.13 24.13 0 0 0 -7 13.16c-.11.55-.21 1.1-.29 1.64-.28-.48-.58-1-.89-1.42a24.34 24.34 0 0 0 -11.36-9.7 16.81 16.81 0 0 0 -3.2-.93 19.6 19.6 0 0 0 -.4 3.31 24.12 24.12 0 0 0 4.35 14.27 26.86 26.86 0 0 0 5.81 6.5h20a28.42 28.42 0 0 0 4.65-4.22 24.28 24.28 0 0 0 6.42-13.48 17.15 17.15 0 0 0 .07-3.34 19.28 19.28 0 0 0 -3.28.49z" fill="#3ad282"/><path d="m110.7 71c-.34-.27-.69-.53-1-.78a18 18 0 0 0 -7.43-3.27 22.23 22.23 0 0 0 -5.37-.22 21.77 21.77 0 0 0 -5.21 1.33 19.11 19.11 0 0 0 -7.46 5.73 18.39 18.39 0 0 0 -4.23 14.21 19.31 19.31 0 0 0 1.54 5.94 3.54 3.54 0 0 1 .31.65q2.13 4.93-1.17 8.53l-.8.82a33.38 33.38 0 0 0 -2.53 2.77 34.34 34.34 0 0 0 -1.35 41.22q5.22 7.73-.81 14.58l-.34.38c-.6.69-1.21 1.38-1.81 2.09a47.07 47.07 0 0 0 -10.04 21.37 49.36 49.36 0 0 0 -.44 14.16 46.7 46.7 0 0 0 17.68 32.63 46.68 46.68 0 0 0 22.37 10.28 49.38 49.38 0 0 0 12.79.36l-3.08-29.33-1.08-10.16-23.1-18.74 23.14 18.74-5.76-54.86-17.58-14.26 17.58 14.26-.91-8.82-5.09-48.45-.65-6.32-7.14-5.78 7.14 5.78-1.39-13.21 1.39 13.21.65 6.32 3.31-4-3.31 4 5.09 48.45 9.66-12-9.66 12 .91 8.82 5.76 54.86 1.08 10.16 12.09-14.93-12.09 14.93 3.08 29.33a48.54 48.54 0 0 0 42.7-53.27 46.55 46.55 0 0 0 -17.67-32.58c-.72-.59-1.45-1.16-2.19-1.69-.15-.1-.28-.2-.39-.29q-7.35-5.47-3.85-14.11a34.28 34.28 0 0 0 -9.76-40.08 37.5 37.5 0 0 0 -3-2.19q-.48-.33-1-.63-3.94-2.84-2.89-8.11a2.84 2.84 0 0 1 .16-.7 19.91 19.91 0 0 0 .25-6.13 18.6 18.6 0 0 0 -7.1-13z" fill="#78d394"/><path d="m115.44 243.78-3.08-29.33-1.08-10.16-23.14-18.74m9.34-112.92 1.39 13.21.65 6.32 3.31-4m-4-2.27-7.14-5.78m22.54 48.6-9.66 12 .91 8.82 5.76 54.86m-5.76-54.86-17.54-14.36m11.58-43 5.09 48.45m10.83 103.17 9.79 93.37m-12.87-122.7 12.09-14.93" fill="none" stroke="#2c765b" stroke-linecap="round" stroke-linejoin="round" stroke-width="2.05"/><path d="m135.87 252.53a13.32 13.32 0 1 0 3.9-9.41 12.77 12.77 0 0 0 -3.9 9.41z" fill="#2c765b"/><path d="m325.39 357a13.32 13.32 0 1 0 3.9-9.41 12.77 12.77 0 0 0 -3.9 9.41z" fill="#3ad282"/><path d="m232.1 259.81-1.42 6.69a408.42 408.42 0 0 0 -34.3 44.32l6 6.64q34.16-41.29 86.08-66.84l.61-5.34q-3 .28-6 .49t-6.12.25c-1.12 0-2.22 0-3.32 0h-2q-8.33 0-16.84-.73l-2.06-.19z" fill="#f19e8d"/><path d="m228.56 323c-.69 0-1.46 0-2.3.1a.54.54 0 0 1 -.26-.1l.22.78 1.39 3.31.86 2a28.27 28.27 0 0 0 6.66-2.19 3.59 3.59 0 0 1 1-.52q-2-3.14-7.56-3.41m-21.78-10.7a18 18 0 0 1 -6.72-.61 11.44 11.44 0 0 1 -1.91-.55c-.79-.36-1.46-.7-2-1a63.54 63.54 0 0 0 -3.71 7.1l9.15 2.41a11.7 11.7 0 0 0 4.7-2.74 9.71 9.71 0 0 0 1.58-1.78v-.1z" fill="#fbf9ec"/><path d="m189.46 322.51-1.13-.29.09 5.06 18.34 4.86a55.8 55.8 0 0 0 16.45 2.07 47.87 47.87 0 0 0 5.69-.57q6.95-1.08 10.69-4.26l-2.52-3.54-.94.49a3.59 3.59 0 0 0 -1 .52 28.27 28.27 0 0 1 -6.66 2.19l-.86-2 .81 2h-.19q-9.28 1.6-21.19-1.83z" fill="#303030"/><path d="m192.44 317.19-.44-.09-2.54 5.41 17.62 4.72q11.89 3.43 21.19 1.83h.19l-.81-2-1.39-3.31a32.42 32.42 0 0 1 -10.26-5.18c0-.05-.06-.08-.09-.08a15.14 15.14 0 0 1 -4.91-6.59l-.84-.18-3.38.53 1.11 2.77v.06a9.71 9.71 0 0 1 -1.58 1.78 11.7 11.7 0 0 1 -4.7 2.74z" fill="#efbd65"/><path d="m211.21 312.12a.62.62 0 0 0 -.46.3l-1.89 2.46c-.23-.23-.46-.47-.68-.72a.8.8 0 0 0 -.51-.22.57.57 0 0 0 -.51.24.34.34 0 0 0 -.14.43.6.6 0 0 0 .19.54c.4.43.82.85 1.25 1.25l.07.05c.65.61 1.32 1.19 2 1.73h.05s0 .06.11.08c.64.5 1.32 1 2 1.44h.16c.74.45 1.51.88 2.31 1.28h.07c.79.35 1.62.71 2.49 1.07h.09c.85.3 1.72.58 2.62.86a43.51 43.51 0 0 0 5.54 1.08.44.44 0 0 0 .47-.13.86.86 0 0 0 .27-.51.42.42 0 0 0 -.21-.47.58.58 0 0 0 -.44-.32c-1.47-.18-2.9-.42-4.28-.71a1.59 1.59 0 0 0 .11-.5.53.53 0 0 0 -.27-.47.54.54 0 0 0 -.52-.18.91.91 0 0 0 -.45.18l-.38.51-1.17-.43.27-.34a.69.69 0 0 0 .14-.49.64.64 0 0 0 -.3-.5.57.57 0 0 0 -.53-.15.52.52 0 0 0 -.44.26l-.57.71c-.38-.14-.76-.29-1.14-.46l.71-.81a.66.66 0 0 0 0-.46.81.81 0 0 0 -.22-.55.87.87 0 0 0 -.5-.13.45.45 0 0 0 -.49.24l-.85 1.16a6.16 6.16 0 0 0 -1.08-.56l1.06-1.3a.74.74 0 0 0 .05-.56.81.81 0 0 0 -.23-.53 1.54 1.54 0 0 0 -.49-.15.5.5 0 0 0 -.46.27l-1.17 1.51a6.63 6.63 0 0 0 -.92-.65l1.36-1.84a.67.67 0 0 0 .15-.54.73.73 0 0 0 -.84-.67c-.15 0-.28.05-.38.23l-1.48 1.9a6.2 6.2 0 0 1 -.84-.75l1.92-2.55a1.4 1.4 0 0 0 .09-.56 1.93 1.93 0 0 0 -.22-.46 1.09 1.09 0 0 0 -.49-.11z" fill="#f7d472"/><path d="m356.48 186.5a2.6 2.6 0 0 0 -1.81-4.43 2.6 2.6 0 0 0 -1.86.76 2.49 2.49 0 0 0 -.74 1.84 2.59 2.59 0 0 0 2.6 2.61 2.38 2.38 0 0 0 1.81-.78z" fill="#e97a82"/><path d="m409.25 180.2a3.63 3.63 0 0 0 -2.54-6.2 3.53 3.53 0 0 0 -2.58 1.06 3.67 3.67 0 0 0 2.58 6.24 3.32 3.32 0 0 0 2.54-1.1z" fill="#e97a82"/><path d="m383 179.06a3.54 3.54 0 0 0 -2.58 1.06 3.67 3.67 0 0 0 2.58 6.24 3.32 3.32 0 0 0 2.54-1.1 3.63 3.63 0 0 0 -2.54-6.2z" fill="#e97a82"/><path d="m380.37 176.22a5.4 5.4 0 0 0 -4.07-1.7 5.59 5.59 0 0 0 -4.09 1.7 5.83 5.83 0 0 0 4.09 9.91 5.74 5.74 0 0 0 4.07-9.91z" fill="#e97a82"/><path d="m407.46 179.33a2.35 2.35 0 0 0 0 3.33 2.19 2.19 0 0 0 1.66.71 2.34 2.34 0 0 0 1.65-4 2.18 2.18 0 0 0 -1.65-.68 2.23 2.23 0 0 0 -1.66.64z" fill="#ffa76c"/><path d="m354.7 191.29a6.06 6.06 0 1 0 4.3 1.77 5.88 5.88 0 0 0 -4.3-1.77z" fill="#78d394"/><path d="m322.55 256.18a.6.6 0 0 1 -.33-.1.63.63 0 0 1 -.21-.87c16.73-27.59 23.06-47.47 18.8-59.1-1.88-5.13-5.9-8.76-11.94-10.79a.63.63 0 1 1 .4-1.2c6.43 2.16 10.71 6 12.73 11.55 4.4 12-2 32.27-18.91 60.2a.62.62 0 0 1 -.54.31z" fill="#303030"/><path d="m157.47 380.69a.64.64 0 0 1 -.64-.64v-33.19l-16.59 28.75a.63.63 0 0 1 -1.1-.63l17.7-30.66v-11l-9.52 5.49-17.76 30.68a.62.62 0 0 1 -.86.23.62.62 0 0 1 -.23-.86l16.65-28.78-28.79 16.62a.64.64 0 0 1 -.87-.23.65.65 0 0 1 .23-.87l30.71-17.72 5.48-9.48h-11l-30.68 17.6a.62.62 0 0 1 -.86-.23.63.63 0 0 1 .23-.87l28.75-16.56h-33.16a.64.64 0 0 1 -.64-.64.64.64 0 0 1 .64-.63h35.36l9.53-5.49-9.53-5.5h-35.36a.64.64 0 0 1 -.64-.63.65.65 0 0 1 .64-.64h33.16l-28.72-16.56a.64.64 0 0 1 .64-1.1l30.62 17.7h11l-5.52-9.55-30.62-17.73a.63.63 0 1 1 .63-1.09l28.72 16.62-16.57-28.75a.62.62 0 0 1 .23-.86.64.64 0 0 1 .87.23l17.69 30.65 9.54 5.52v-11l-17.69-30.68a.62.62 0 0 1 .23-.86.64.64 0 0 1 .87.23l16.59 28.77v-33.23a.64.64 0 0 1 .64-.63.63.63 0 0 1 .63.63v35.43l5.49 9.51 5.5-9.56v-35.38a.63.63 0 0 1 .63-.63.64.64 0 0 1 .64.63v33.18l16.64-28.72a.63.63 0 0 1 1.1.63l-17.7 30.63v11l9.61-5.52 17.66-30.59a.64.64 0 0 1 .87-.23.62.62 0 0 1 .23.86l-16.6 28.64 28.66-16.56a.63.63 0 0 1 .63 1.09l-30.56 17.71-5.55 9.57h10.94l30.71-17.69a.64.64 0 1 1 .64 1.1l-28.77 16.59h33.26a.64.64 0 0 1 .63.64.63.63 0 0 1 -.63.63h-35.5l-9.51 5.49 9.58 5.54h35.39a.63.63 0 0 1 .63.63.64.64 0 0 1 -.63.64h-33.19l28.73 16.56a.63.63 0 0 1 -.63 1.06l-30.64-17.66h-11l5.52 9.54 30.65 17.73a.62.62 0 0 1 .23.86.62.62 0 0 1 -.86.23l-28.75-16.62 16.59 28.75a.63.63 0 0 1 -1.1.63l-17.69-30.65-9.51-5.49v11l17.62 30.68a.63.63 0 0 1 -1.1.63l-16.56-28.77v33.19a.64.64 0 0 1 -.64.64.64.64 0 0 1 -.63-.64v-35.39l-5.48-9.53-5.51 9.53v35.39a.64.64 0 0 1 -.67.64zm.67-48.13v9.57l4.78-8.27-1.76-3.05zm6.25 1.3 4.74 8.25v-9.51l-3-1.75zm6-2 8.24 4.76-4.79-8.28h-3.44zm-17-3.48-4.75 8.21 8.24-4.76v-3.45zm8.88 1.8 1.39 2.41 1.36-2.38-1.39-.8zm4.49-.43 2.38 1.38v-2.79h-1.56zm-8.61-1.37v2.72l2.38-1.39-.77-1.33zm6.73.29.78.44.45-.77h-.68zm-3.65-.29.4.7.73-.41-.5-.29zm1-1.27h.8v-3.11l-1.57 2.7zm-4.05 0h.82l-.29-.5-.58-.33zm-4 0h2.76v-1.55l-1.4-.81zm-11.05 0h9.59l1.72-3-3.06-1.77zm31.53 0h9.56l-8.3-4.8-3 1.73zm-4.19 0h2.72l-1.39-2.41-1.33.77zm-2.11 0h.84v-.91l-.47.27zm-4 0h.81l.72-.4-1.63-2.71zm-4.61-1.39.65.38 1.62-2.78-2.74 1.58zm5.66-2.38 1.56 2.7.86-.5.35-.59zm-9.21.35.77.44v-.6l-.34-.58zm14.3-.26v.57l.7-.4-.4-.7zm-4.5-1.21 2.71 1.58.44-.75v-.83zm-7.84.93.36.64 2.72-1.57h-3.08zm-5.56-1.53 2.4 1.38.8-1.37-.82-1.42zm18.85 0 .77 1.34 2.38-1.36-2.35-1.37zm-5.45-.62h3.11v-.84l-.41-.73zm-7.88 0h3.13l-2.68-1.53-.45.78zm-15-4.83 8.26 4.77 3-1.76-1.74-3zm29.81 3 3 1.74 8.24-4.76h-9.47zm-16.79.5.45.78.3-.52v-.69zm14.28.17.33.56.44-.76-.77-.44zm-11.21-1.47 2.7 1.55-1.56-2.69-.72.43zm7.77-1.17-1.54 2.71 2.65-1.55-.45-.78zm-5.55-.63 1.62 2.78v-3.16h-1zm2.89-.42v3.16l1.54-2.72-.76-.44zm-10.18 0 1.37 2.38 1.38-.8v-1.58zm16.28 1.55 1.41.8 1.38-2.39h-2.79zm-12.26-1.55v.85l.54-.3.31-.55zm10.41.47.58.34v-.85h-.87zm-7.38-1.74h.56l.6-.34-.73-.43zm-3 0h1.57l.79-1.4-2.36-1.36zm-4.75 0h3.48v-3.49l-8.27-4.79zm17 0h3.52l4.82-8.31-8.34 4.8zm-2.88 0h1.61v-2.88l-2.41 1.39zm-2.1 0h.54l-.44-.76-.75.45zm-3.27-1.88 1.37.8 1.44-.8-1.36-2.36zm-4.09-2.35 3 1.72 1.77-3-4.76-8.24zm6.22-1.3 1.73 3 3-1.76v-9.59z" fill="#303030"/><path d="m372.67 380.69a.64.64 0 0 1 -.63-.64v-33.19l-16.6 28.75a.63.63 0 0 1 -1.1-.63l17.7-30.66v-11l-9.51 5.49-17.73 30.66a.63.63 0 0 1 -1.1-.63l16.66-28.78-28.82 16.62a.62.62 0 0 1 -.86-.23.64.64 0 0 1 .23-.87l30.72-17.72 5.49-9.48h-11.06l-30.65 17.62a.63.63 0 0 1 -.87-.23.64.64 0 0 1 .23-.87l28.75-16.56h-33.17a.64.64 0 0 1 -.64-.64.64.64 0 0 1 .64-.63h35.37l9.53-5.49-9.53-5.5h-35.37a.64.64 0 0 1 -.64-.63.64.64 0 0 1 .64-.64h33.17l-28.72-16.56a.64.64 0 0 1 -.23-.87.64.64 0 0 1 .87-.23l30.62 17.7h11l-5.51-9.55-30.63-17.73a.63.63 0 1 1 .64-1.09l28.71 16.62-16.57-28.75a.63.63 0 0 1 1.1-.63l17.7 30.65 9.54 5.52v-11l-17.7-30.68a.63.63 0 0 1 1.1-.63l16.56 28.77v-33.23a.63.63 0 0 1 .63-.63.64.64 0 0 1 .64.63v35.43l5.48 9.51 5.51-9.56v-35.38a.63.63 0 0 1 .63-.63.63.63 0 0 1 .63.63v33.18l16.59-28.72a.64.64 0 0 1 .87-.23.62.62 0 0 1 .23.86l-17.69 30.63v11l9.61-5.52 17.66-30.59a.63.63 0 0 1 1.1.63l-16.52 28.64 28.63-16.52a.64.64 0 0 1 .87.23.63.63 0 0 1 -.24.86l-30.53 17.67-5.55 9.57h10.95l30.67-17.69a.63.63 0 1 1 .63 1.1l-28.8 16.59h33.24a.64.64 0 0 1 .63.64.63.63 0 0 1 -.63.63h-35.4l-9.52 5.49 9.56 5.54h35.4a.63.63 0 0 1 .63.63.64.64 0 0 1 -.63.64h-33.19l28.74 16.56a.64.64 0 0 1 .24.87.65.65 0 0 1 -.87.23l-30.66-17.66h-11l5.52 9.54 30.66 17.73a.63.63 0 1 1 -.64 1.09l-28.75-16.62 16.6 28.75a.63.63 0 0 1 -.24.86.62.62 0 0 1 -.86-.23l-17.7-30.65-9.51-5.49v11l17.64 30.64a.62.62 0 0 1 -.23.86.64.64 0 0 1 -.87-.23l-16.56-28.77v33.19a.64.64 0 1 1 -1.27 0v-35.39l-5.49-9.53-5.5 9.53v35.39a.64.64 0 0 1 -.67.64zm.67-48.13v9.56l4.77-8.26-1.75-3.05zm6.24 1.3 4.75 8.26v-9.52l-3-1.75zm6-2 8.24 4.76-4.78-8.28h-3.44zm-17-3.48-4.75 8.21 8.24-4.76v-3.45zm8.88 1.8 1.38 2.41 1.37-2.38-1.4-.8zm4.49-.43 2.38 1.38v-2.79h-1.56zm-8.61-1.37v2.72l2.39-1.39-.78-1.33zm6.73.29.78.45.45-.78h-.68zm-3.65-.29.41.7.72-.41-.5-.29zm1-1.27h.79v-3.11l-1.56 2.69zm-4.05 0h.88l-.3-.5-.58-.33zm-4 0h2.76v-1.55l-1.4-.81zm-11.05 0h9.59l1.72-3-3.05-1.77zm31.53 0h9.55l-8.29-4.8-3.11 1.69zm-4.19 0h2.73l-1.39-2.41-1.34.77zm-2.1 0h.83v-.91l-.47.27zm-4.05 0h.83l.7-.4-1.59-2.71zm-4.6-1.39.66.38 1.6-2.77-2.73 1.57zm5.64-2.39 1.57 2.71.87-.5.35-.59zm-9.18.36.76.44v-.6l-.33-.58zm14.29-.26v.57l.7-.4-.4-.7zm-4.43-1.17 2.72 1.58.44-.75v-.83zm-7.83.93.37.64 2.71-1.57h-3.08zm-5.56-1.53 2.43 1.4.79-1.37-.83-1.42zm18.85 0 .77 1.34 2.38-1.36-2.35-1.37zm-5.46-.64h3.13v-.84l-.42-.73zm-7.86 0h3.12l-2.68-1.53-.44.78zm-15.05-4.83 8.26 4.77 3-1.76-1.72-3zm29.81 3 3 1.74 8.24-4.76h-9.48zm-16.8.5.46.79.31-.53v-.7zm14.3.17.33.56.43-.76-.76-.44zm-11.23-1.47 2.72 1.55-1.57-2.69-.73.43zm7.77-1.18-1.55 2.72 2.67-1.55-.44-.78zm-5.54-.62 1.61 2.75v-3.13h-.94zm2.88-.42v3.16l1.54-2.72-.75-.44zm-10.17 0 1.36 2.38 1.4-.8v-1.58zm16.29 1.55 1.4.8 1.38-2.39h-2.78zm-12.26-1.55v.83l.51-.3.32-.55zm10.41.47.58.34v-.85h-.88zm-7.4-1.74h.58l.59-.34-.73-.43zm-3 0h1.55l.8-1.4-2.35-1.36zm-4.76 0h3.38v-3.49l-8.27-4.79zm17 0h3.52l4.81-8.31-8.33 4.8zm-2.89 0h1.62v-2.9l-2.42 1.39zm-2.1 0h.64l-.43-.76-.76.45zm-3.23-1.9 1.36.8 1.39-.83-1.36-2.36zm-4.09-2.35 3 1.72 1.76-3-4.75-8.24zm6.22-1.3 1.72 3 3.05-1.76v-9.59z" fill="#303030"/><path d="m204 340.26h-.15l-41.85-10.54a6 6 0 0 1 -.67-.17 8.14 8.14 0 0 1 -3.4-13.55 7.81 7.81 0 0 1 5.77-2.39 2.89 2.89 0 0 1 .5 0h.18l39.72 2.22a.64.64 0 0 1 .6.67.68.68 0 0 1 -.67.6l-39.69-2.22h-.23-.41a6.85 6.85 0 0 0 -4.87 11.71 6.71 6.71 0 0 0 2.87 1.75c.19.06.38.1.57.14l42 10.53a.64.64 0 0 1 .46.77.65.65 0 0 1 -.73.48z" fill="#303030"/><path d="m104.29 294.16-1.7-.5a65.85 65.85 0 0 0 -5.93 28q0 27.77 19.62 47.38t47.37 19.62q27.75 0 47.33-19.62 15.87-15.85 18.91-37a1 1 0 0 0 0-.23l-1.69-.5a72.31 72.31 0 0 0 .63-9.62 62.9 62.9 0 0 0 -19.11-46.14 74.3 74.3 0 0 0 -7.41-6.5l-.06-.06q-16.75-12.54-38.63-12.53-27 0-46.14 19.09a65.83 65.83 0 0 0 -13.22 18.59m-2.24 27.55a60.33 60.33 0 0 1 5.79-26.48 61.5 61.5 0 0 1 12.23-17.05 59.33 59.33 0 0 1 43.58-18.07q20.55 0 36.28 11.74a66 66 0 0 1 7.3 6.33 59.3 59.3 0 0 1 18 43.53 72.69 72.69 0 0 1 -.5 8.57c-.07.32-.12.64-.16 1a58.89 58.89 0 0 1 -17.35 34 59.35 59.35 0 0 1 -43.58 18.07 61.61 61.61 0 0 1 -61.6-61.64z" fill="#303030"/><path d="m107.84 295.23a60.33 60.33 0 0 0 -5.79 26.48 61.61 61.61 0 0 0 61.6 61.64 59.35 59.35 0 0 0 43.58-18.07 58.89 58.89 0 0 0 17.35-34c0-.34.09-.66.16-1a72.69 72.69 0 0 0 .5-8.57 59.3 59.3 0 0 0 -18-43.53 66 66 0 0 0 -7.3-6.33q-15.74-11.75-36.28-11.74a59.33 59.33 0 0 0 -43.58 18.07 61.5 61.5 0 0 0 -12.23 17.05m-3.14 26.52a57.8 57.8 0 0 1 5.72-25.75 59.73 59.73 0 0 1 11.57-15.94 56.78 56.78 0 0 1 41.65-17.24 56.41 56.41 0 0 1 34.57 11.18 61.6 61.6 0 0 1 7.07 6.1 56.79 56.79 0 0 1 17.27 41.69 63.6 63.6 0 0 1 -.46 7.74c0 .46-.11.94-.17 1.42q-2.69 18.57-16.64 32.52a56.75 56.75 0 0 1 -41.67 17.26 58.95 58.95 0 0 1 -58.92-58.94z" fill="#e0f0f7"/><path d="m163.65 314.24a7.53 7.53 0 0 0 -7.51 7.51 7.53 7.53 0 0 0 7.51 7.47 7.3 7.3 0 0 0 5.3-2.17 7.08 7.08 0 0 0 2-3.45 7.92 7.92 0 0 0 .22-1.84 7.19 7.19 0 0 0 -2.21-5.3 7 7 0 0 0 -4.18-2.11 6.76 6.76 0 0 0 -1.13-.11z" fill="#e1f0f7"/><path d="m102.59 293.66 1.7.5a65.83 65.83 0 0 1 13.22-18.59q19.11-19.1 46.14-19.09 21.89 0 38.63 12.53l.06.06a74.3 74.3 0 0 1 7.41 6.5 62.9 62.9 0 0 1 19.11 46.14 72.31 72.31 0 0 1 -.63 9.62l1.69.5 4.08 1.17.07-.35a76 76 0 0 0 .78-11q0-29.51-20.86-50.36a81.28 81.28 0 0 0 -7.88-6.93l-.23-.14q-18.28-13.8-42.24-13.8-29.51 0-50.39 20.87a71.2 71.2 0 0 0 -14.79 21.1z" fill="#79c9bf"/><path d="m372.94 256.72 1.51-1.88 3.52-4.39q-29 .3-49.53 20.87-20.87 20.87-20.86 50.36a75.13 75.13 0 0 0 1.42 14.71l3.55-4.43 1.51-1.9a71.12 71.12 0 0 1 -.48-8.35q0-27 19.12-46.14 16.97-16.98 40.24-18.85z" fill="#79c9bf"/><path d="m426.16 274.34a70.26 70.26 0 0 0 -7.62-6.66q-17.18-13-39.73-13c-1.48 0-2.93 0-4.36.12l-1.51 1.88q-23.26 1.86-40.25 18.85-19.11 19.13-19.12 46.14a71.12 71.12 0 0 0 .48 8.35l-1.51 1.9q3 21.26 18.91 37.13 19.62 19.62 47.36 19.62t47.35-19.62q15.85-15.85 18.9-37a73.21 73.21 0 0 0 .72-10.35q0-27.75-19.62-47.37m-56.44-13.63a67.59 67.59 0 0 1 9.09-.6q20.55 0 36.29 11.74a66 66 0 0 1 7.3 6.33 59.31 59.31 0 0 1 18 43.53 67.63 67.63 0 0 1 -.67 9.55 61.65 61.65 0 0 1 -104.51 34q-16.51-16.5-17.91-39.32c-.07-1.4-.11-2.82-.11-4.25a59.31 59.31 0 0 1 18-43.53q14.8-14.73 34.52-17.44z" fill="#303030"/><path d="m378.81 260.11a67.59 67.59 0 0 0 -9.09.6q-19.74 2.71-34.48 17.47a59.31 59.31 0 0 0 -18 43.53c0 1.43 0 2.85.11 4.25q1.4 22.82 17.91 39.32a61.69 61.69 0 0 0 104.51-34 67.63 67.63 0 0 0 .67-9.55 59.31 59.31 0 0 0 -18-43.53 66 66 0 0 0 -7.3-6.33q-15.74-11.75-36.29-11.74m-11.63 3.77c1.79-.33 3.62-.59 5.49-.76s4.05-.3 6.13-.3 4.13.1 6.17.3a55.62 55.62 0 0 1 28.38 10.86 61.6 61.6 0 0 1 7.07 6.1 56.79 56.79 0 0 1 17.27 41.69 65.53 65.53 0 0 1 -.63 9.16q-2.69 18.57-16.64 32.52a58.91 58.91 0 0 1 -100.56-40.68c0-.34 0-.68 0-1a59.14 59.14 0 0 1 47.31-57.87z" fill="#e0f0f7"/><path d="m372.67 321.59v.16a6.14 6.14 0 0 0 10.49 4.34 6 6 0 0 0 1.63-2.84 7.41 7.41 0 0 0 .14-1.5v-.16a6 6 0 0 0 -1.77-4.19 5.89 5.89 0 0 0 -3.44-1.71 4 4 0 0 0 -.91-.1 5.86 5.86 0 0 0 -4.36 1.81 6 6 0 0 0 -1.78 4.19z" fill="#e1f0f7"/><path d="m379.6 328.31a1.17 1.17 0 0 0 .81-.44 1.26 1.26 0 0 0 .27-.86 1.29 1.29 0 0 0 -.44-.83 1.11 1.11 0 0 0 -.87-.27l-71.62 7.57a1.14 1.14 0 0 0 -.81.46 1.13 1.13 0 0 0 -.23.9 1.2 1.2 0 0 0 .41.76 1.09 1.09 0 0 0 .87.27z" fill="#e1f0f7"/><path d="m344.79 247.88-.91.33-2.85 1-2.84 1-.9.33 1.44 4.14 2.06-.73 2.29-.81 2.28-.82.89-.31-1.46-4.12m-120.79-10.46.91-.33-1.47-4.1-1.48.54-6.42-18.27a2.45 2.45 0 0 0 -1.24-1.38 2.31 2.31 0 0 0 -1.84-.1 2.38 2.38 0 0 0 -1.38 1.24 2.3 2.3 0 0 0 -.1 1.84l6.43 18.26-1.48.52.21.57a1.44 1.44 0 0 0 -.57.37 1.49 1.49 0 0 0 -.48 1.11 1.61 1.61 0 0 0 1.57 1.57 1.7 1.7 0 0 0 .51-.07l.21.57.9-.3 2.84-1 2.85-1m98.19-51.3 1.2-.36a2.41 2.41 0 0 1 .76-.11 2.31 2.31 0 0 1 2.35 2.34 2.41 2.41 0 0 1 -.41 1.38c-.05 0-.07.06-.07.1l-5.25 4.92a2.11 2.11 0 0 0 -.69 1.17 2.33 2.33 0 0 0 .06 1.38l5.55 15.77-1.47.5 1.44 4.13.9-.3 2.84-1 2.86-1 .9-.33-1.44-4.12-1.48.53-5-14.29 3.44-3.18.6-.54.46-.51a.31.31 0 0 1 .08-.13 7.55 7.55 0 0 0 1-1.71 7.31 7.31 0 0 0 .51-2.75 7.15 7.15 0 0 0 -7.17-7.16 7.39 7.39 0 0 0 -2.17.31l-1.24.4 1.45 4.58m-221 100.8a1.09 1.09 0 0 0 -.9 0 1.11 1.11 0 0 0 -.7.61 1.15 1.15 0 0 0 0 .91 1.12 1.12 0 0 0 .6.66l59.7 28.13 2.67 1.23a1.27 1.27 0 0 0 .92.07 1.56 1.56 0 0 0 .54-.6v-.07a1.18 1.18 0 0 0 .06-.9 1.17 1.17 0 0 0 -.64-.7l-2.5-1.17-59.85-28.19m278.53 35.32a1.22 1.22 0 0 0 .81-.45 1.25 1.25 0 0 0 .27-.86 1.31 1.31 0 0 0 -.44-.83 1.11 1.11 0 0 0 -.87-.27l-1.51.19-2.57.27-67.54 7.11a1.18 1.18 0 0 0 -.81.46 1.14 1.14 0 0 0 -.23.9 1.17 1.17 0 0 0 .41.76 1.09 1.09 0 0 0 .87.27l68.51-7.23z" fill="#e1f0f7"/><path d="m335.54 224.5a.23.23 0 0 1 0-.09l-3.31-9.41-2.86 1 11.63 33.21 2.85-1-8.34-23.71m-7 26.39v-4.61l-72.08 83.51-9-25.59v9.58l7.72 22.1 73.35-85m-125.1 20.54 2.73 2.28 5.22-6.29-2.74-2.29zm22.51-28.5-1.94-5.5-2.85 1 22.71 65 84.69-74.42v-4l-83.21 73.09-19.4-55.15m154.5 78.92a1.22 1.22 0 0 1 -.81.45l-3.1.33.84 1.63a2.32 2.32 0 0 0 1.3 1.14 2.13 2.13 0 0 0 1.68 0 2.49 2.49 0 0 0 1.3-1.11l.57-1.12-2.68-5.2-34.15-65.65-2.28.82 34.78 66.93 1.51-.19a1.11 1.11 0 0 1 .87.27 1.31 1.31 0 0 1 .44.83 1.25 1.25 0 0 1 -.27.86m29.44-83.4a9.44 9.44 0 0 0 -1.2.07l-.92.06-39.24 4.42c-1.05.1-1.93.16-2.65.16h-.34a5.42 5.42 0 0 1 -3.57-1.61 5.87 5.87 0 0 1 -1.15-1.6c-.09-.24-.17-.46-.23-.66a.3.3 0 0 1 0-.15l-4.55-12.86a2.44 2.44 0 0 0 -1.27-1.37 2.32 2.32 0 0 0 -1.81-.08l5.35 15.17a4.42 4.42 0 0 0 .24.73.33.33 0 0 0 0 .1 8.91 8.91 0 0 0 1.75 2.49 8.18 8.18 0 0 0 5.45 2.5h.51c.67 0 1.51 0 2.54-.12l39.78-4.7a.91.91 0 0 0 .33 0h.94a8 8 0 0 1 7.91 7.9v.06 6.9l.84-1.57a.09.09 0 0 1 0-.06.12.12 0 0 1 .07-.1l.06-.11a10 10 0 0 0 1.38-5.22 9.83 9.83 0 0 0 -3-7.26 9.92 9.92 0 0 0 -7.22-3.1z" fill="#79c9bf"/><path d="m221.12 238.41-2.84 1 1.6 4.52-58.88 71.19 2.5 1.17a1.17 1.17 0 0 1 .64.7 1.18 1.18 0 0 1 -.06.9v.11a1.56 1.56 0 0 1 -.67.57 1.27 1.27 0 0 1 -.92-.07l-2.67-1.23v.3a2.5 2.5 0 0 0 .73 1.6l4.43 4.42a2.87 2.87 0 0 0 .57 1.38 2.94 2.94 0 0 0 2 1.18l87.14 12.54h.1a.16.16 0 0 1 .09 0h.06a2.88 2.88 0 0 0 .72 0 4.35 4.35 0 0 0 .52-.1 3.75 3.75 0 0 0 .6-.24l.18-.12a2.63 2.63 0 0 0 .47-.37l.26-.24v-.06l79.03-91.56 1.47 4.19 2.84-1-11.66-33.19-2.84 1 2.59 7.42-.6.51v4l-84.69 74.37-22.71-65m-15 35.29-2.73-2.28 5.21-6.3 2.74 2.29 5.69-6.9-2.71-2.26 7.42-9 19.32 55 9.77 27.86-82.48-11.88-2.89-2.88 30.19-36.47 2.74 2.25 7.74-9.34m125.16-43.12 3.11 8.86-5.88 6.84v4.61l-73.35 85-7.72-22.1v-9.57l83.84-73.62m44 89.75 2.57-.27-34.78-66.93-2.29.81zm33.64-77a.48.48 0 0 1 .18 0h.06a3.82 3.82 0 0 1 .68-.06 5.5 5.5 0 0 1 5.49 5.48 5.47 5.47 0 0 1 -.71 2.75l.07-.1q-.18.28-.33.57l-34.86 66 2.68 5.2 35.59-67.35v-6.9-.06a8 8 0 0 0 -7.91-7.9c-.33 0-.64 0-.94 0a.91.91 0 0 1 -.33 0l-39.78 4.7c-1 .08-1.87.12-2.54.12h-.51a8.18 8.18 0 0 1 -5.45-2.5 8.91 8.91 0 0 1 -1.75-2.49.33.33 0 0 1 0-.1 4.42 4.42 0 0 1 -.24-.73l-5.38-15.15a2.28 2.28 0 0 0 -1.37 1.23 2.35 2.35 0 0 0 -.09 1.84l4.51 12.89c.11.32.23.65.37 1a.23.23 0 0 0 0 .09 10.32 10.32 0 0 0 2.14 3.11c.2.2.4.4.6.57l2.05 1.38a9.82 9.82 0 0 0 4 1.07h.64c.83 0 1.88-.07 3.15-.19z" fill="#55a69c"/><path d="m320.17 179.77-1.9.57-3.76 2.66-14.2 4.49a1.45 1.45 0 0 0 -.36.22 1 1 0 0 0 -.27.69.61.61 0 0 0 .06.25v.05l1 3.47a.36.36 0 0 0 0 .11 1.18 1.18 0 0 0 .21.4 1 1 0 0 0 .7.27h.35.06l14.13-4.46h4.52l2-.57-.55-1.78-1.45-4.58z" fill="#262041" fill-opacity=".5"/><path d="m362 241.58a5.42 5.42 0 0 0 3.57 1.61h.34c.72 0 1.6-.06 2.65-.16l-5.06-44.51-16.5 1.87 9 25.89 4.58 12.89a.3.3 0 0 0 0 .15c.06.2.14.42.23.66a5.87 5.87 0 0 0 1.19 1.6z" fill="#eaae57"/><path d="m402.67 194.08-39.24 4.46 5.06 44.46 39.24-4.46 11.37-46.36z" fill="#f7d472"/><path d="m369 249a1.08 1.08 0 0 0 .79-.44 1.2 1.2 0 0 0 .27-.88 1.27 1.27 0 0 0 -1.33-1.09l-20.49 2.3a.31.31 0 0 0 -.13 0 4.2 4.2 0 0 0 -2.11 1.11s0 0 0 0a4.21 4.21 0 0 0 -1.21 3 4.16 4.16 0 0 0 .38 1.77 1.36 1.36 0 0 0 .13.24l1.51 2.89a1.1 1.1 0 0 0 .69.59 1.27 1.27 0 0 0 .92-.07 1.24 1.24 0 0 0 .59-.73 1.22 1.22 0 0 0 -.06-.9l-1.56-2.79a1.71 1.71 0 0 0 -.13-.23 1.88 1.88 0 0 1 -.14-.74 1.84 1.84 0 0 1 .51-1.31 0 0 0 0 0 0 0 2.11 2.11 0 0 1 .9-.47h-.09z" fill="#303030"/><path d="m192.63 313.31a30.84 30.84 0 0 1 1.13 8.44 31.32 31.32 0 0 1 -.4 5.06c-.12.76-.28 1.52-.46 2.3a27.54 27.54 0 0 1 -4.76 10.21l62.29 15 .33.07 1 .2.39.07.35.06a21.28 21.28 0 0 0 2.78.18 19.22 19.22 0 0 0 3.44-38.13c-.34-.06-.68-.1-1-.15a11.87 11.87 0 0 0 -1.68-.12l-63.42-3.19m4.44 8.44a35.76 35.76 0 0 0 -.33-4.92l59.15 3h.16a7.46 7.46 0 0 1 1.23.1h.07l.84.15a14.94 14.94 0 0 1 8.34 4.4 15.86 15.86 0 0 1 0 22.44 15.3 15.3 0 0 1 -11.24 4.65 17.67 17.67 0 0 1 -2.22-.13h-.1-.27s0 0-.06 0l-.4-.06a6.08 6.08 0 0 1 -.74-.16.13.13 0 0 1 -.1 0h-.21-.06l-57.73-13.92a32.15 32.15 0 0 0 2.71-7.33c.2-.84.37-1.69.51-2.54a36.29 36.29 0 0 0 .46-5.68z" fill="#79c9bf"/><path d="m196.74 316.83a35.76 35.76 0 0 1 .33 4.92 36.29 36.29 0 0 1 -.42 5.56c-.14.85-.31 1.7-.51 2.54a32.15 32.15 0 0 1 -2.71 7.33l57.73 13.92h.06.21a.13.13 0 0 0 .1 0 6.08 6.08 0 0 0 .74.16l.4.06s0 0 .06 0h.27.1a17.67 17.67 0 0 0 2.22.13 15.3 15.3 0 0 0 11.24-4.65 15.86 15.86 0 0 0 0-22.44 14.94 14.94 0 0 0 -8.34-4.4l-.84-.15h-.07a7.46 7.46 0 0 0 -1.23-.1h-.16l-59.15-3m3.25 4.92c0-.63 0-1.24-.06-1.84l41.89 2.21-.13.13a18.43 18.43 0 0 0 -5.42 10.87 20.23 20.23 0 0 0 -.18 2.74 18.68 18.68 0 0 0 2.38 9.35l-41-9.87a38 38 0 0 0 1.44-4.66c.22-.91.4-1.83.54-2.75a.23.23 0 0 1 0-.09 42.63 42.63 0 0 0 .46-5.93m42.43 13.95a10 10 0 0 1 .16-1.84 12.86 12.86 0 0 1 12.74-11.08h.52a6.11 6.11 0 0 1 1.11.1c.24 0 .48.05.7.09a12.85 12.85 0 0 1 10.56 12.72 12.9 12.9 0 0 1 -14.73 12.77 1 1 0 0 0 -.24 0l-.27-.05-.7-.12a.73.73 0 0 0 -.21-.07l-.2-.06-.22-.05a12.58 12.58 0 0 1 -5.44-3.3 12.33 12.33 0 0 1 -3.73-9.15z" fill="#55a69c"/><path d="m242.58 333.86a10 10 0 0 0 -.16 1.84 12.33 12.33 0 0 0 3.78 9.09 12.58 12.58 0 0 0 5.44 3.3l.22.05.2.06a.73.73 0 0 1 .21.07l.7.12.27.05a1 1 0 0 1 .24 0 12.94 12.94 0 0 0 11-21.9 12.55 12.55 0 0 0 -6.83-3.59c-.22 0-.46-.07-.7-.09a6.11 6.11 0 0 0 -1.11-.1h-.52a12.86 12.86 0 0 0 -12.74 11.08z" fill="#e0f0f7"/><path d="m282.91 364.49h-16.27v6.09h16.26v-6.09m-29.55-33.29-.37.17-.1.05a4.68 4.68 0 0 0 -2.24 2.92 4.57 4.57 0 0 0 .19 3 5.71 5.71 0 0 0 .31.6 4.62 4.62 0 0 0 2.9 2.24 4.7 4.7 0 0 0 .51.12l-1.89-3.28a2.95 2.95 0 0 1 1.09-4.08 2.82 2.82 0 0 1 2.25-.28 2.78 2.78 0 0 1 1.81 1.38l1.92 3.33a3.81 3.81 0 0 0 .21-.59 4.71 4.71 0 0 0 -.51-3.63 4.57 4.57 0 0 0 -2.89-2.24 4.79 4.79 0 0 0 -2.88.1z" fill="#e0f0f7"/><path d="m252.27 334.85a2.93 2.93 0 0 0 .32 2.25l1.89 3.28 13.91 24.11h6.88l-15.61-27-1.92-3.33a2.78 2.78 0 0 0 -1.81-1.38 2.82 2.82 0 0 0 -2.25.28 2.92 2.92 0 0 0 -1.41 1.79z" fill="#262041"/><path d="m337.29 250.53 1.44 4.14 3.74-1.33-1.47-4.13-3.74 1.32m-115.26-17.02-.48-1.4-2.3.83-4.33-12.39 1.89-1.87-1.2-3.44a2.45 2.45 0 0 0 -1.24-1.38 2.31 2.31 0 0 0 -1.84-.1 2.38 2.38 0 0 0 -1.38 1.24 2.3 2.3 0 0 0 -.1 1.84l6.43 18.26-1.48.52.21.57a1.46 1.46 0 0 1 .52-.09 1.61 1.61 0 0 1 1.59 1.57 1.52 1.52 0 0 1 -.48 1.11 1.63 1.63 0 0 1 -.6.39l.21.57 3.74-1.33-1.44-4.12zm99.48-49.66.72 2.28 1.2-.36a2.41 2.41 0 0 1 .76-.11 2.31 2.31 0 0 1 2.35 2.34 2.41 2.41 0 0 1 -.41 1.38c-.05 0-.07.06-.07.1l-5.25 4.92a2.11 2.11 0 0 0 -.69 1.17 2.33 2.33 0 0 0 .06 1.38l5.55 15.77-1.47.5 1.44 4.13 3.74-1.32-1.46-4.14 2.3-.78-.49-1.38-2.28.81-4.13-11.81 5.3-5.09.6-.54.46-.51a.31.31 0 0 1 .08-.13 7.55 7.55 0 0 0 1-1.71h-.33a1.53 1.53 0 0 1 -1.14-.49 1.59 1.59 0 0 1 -.49-1.11v-.57a5.22 5.22 0 0 0 0-.58v-.42a4.74 4.74 0 0 0 -4.76-4.33 4.75 4.75 0 0 0 -1.41.2z" fill="#79c9bf"/><path d="m322.16 186.13-.72-2.28-.73-2.3-1.87.6-3.76 2.65-15 4.78.78 2.61a.36.36 0 0 0 0 .11 1.18 1.18 0 0 0 .21.4 1 1 0 0 0 .7.27h.23.06l14.13-4.46h4.52l2-.57z" fill="#303030"/><path d="m194.08 204.64a5.39 5.39 0 0 0 -3.37 1.62 5.47 5.47 0 0 0 -1.66 3.82v2.75l16.1 6.6h9.31l21.39-7.43h3v-2.38a5 5 0 0 0 -4.91-4.94z" fill="#dbb44f"/><path d="m190.71 206.26a5.47 5.47 0 0 0 -1.66 3.82v2.75l16.1 6.6h9.31l.27-.08q-2.32-14.17-19.11-14.69h-1.54a5.39 5.39 0 0 0 -3.37 1.6z" fill="#262041" fill-opacity=".5"/><path d="m99.51 287.53a1.15 1.15 0 0 0 0 .91 1.12 1.12 0 0 0 .6.66l62.37 29.36a1.27 1.27 0 0 0 .92.07 1.56 1.56 0 0 0 .6-.53z" fill="#79c9bf" fill-opacity=".5"/><path d="m379.6 328.31a1.17 1.17 0 0 0 .81-.44 1.26 1.26 0 0 0 .27-.86l-74 7.84a1.2 1.2 0 0 0 .41.76 1.09 1.09 0 0 0 .87.27z" fill="#79c9bf"/><path d="m98.53 388.73v6h402v-6z" fill="#3ad282"/><path d="m369.74 187.16a8.06 8.06 0 1 0 2.35 5.7 7.77 7.77 0 0 0 -2.35-5.7z" fill="#78d394"/><path d="m370.64 191.21a5.69 5.69 0 0 0 0 8 5.68 5.68 0 0 0 9.68-4 5.68 5.68 0 0 0 -9.68-4z" fill="#78d394"/><path d="m369.53 189.62a5.68 5.68 0 0 0 9.68-4 5.67 5.67 0 1 0 -9.68 4z" fill="#78d394"/><path d="m366 178.88a3.89 3.89 0 0 0 -2.74 6.63 3.88 3.88 0 1 0 5.5-5.48 3.77 3.77 0 0 0 -2.76-1.15z" fill="#78d394"/><path d="m360.05 187.39a2.22 2.22 0 0 0 .73-1.65 2.19 2.19 0 0 0 -.73-1.68 2.22 2.22 0 0 0 -1.65-.69 2.37 2.37 0 0 0 0 4.73 2.2 2.2 0 0 0 1.65-.71z" fill="#ffa76c"/><path d="m358.06 192.49a3.84 3.84 0 0 0 0-5.48 3.89 3.89 0 1 0 0 5.48z" fill="#78d394"/><path d="m386.06 194.16a5.47 5.47 0 0 0 1.7-4.06 5.8 5.8 0 1 0 -1.7 4.06z" fill="#78d394"/><path d="m383.71 191.29a5.76 5.76 0 1 0 4.09 9.82 5.45 5.45 0 0 0 1.7-4.06 5.77 5.77 0 0 0 -5.79-5.76z" fill="#78d394"/><path d="m393.24 195.49a3.63 3.63 0 0 0 1.15-2.73 3.88 3.88 0 0 0 -6.62-2.74 3.77 3.77 0 0 0 -1.12 2.74 3.68 3.68 0 0 0 1.12 2.73 3.85 3.85 0 0 0 5.47 0z" fill="#78d394"/><path d="m385.71 193.94a2.18 2.18 0 0 0 .73-1.65 2.15 2.15 0 0 0 -.73-1.68 2.19 2.19 0 0 0 -1.65-.69 2.37 2.37 0 0 0 0 4.73 2.17 2.17 0 0 0 1.65-.71z" fill="#ffa76c"/><path d="m391.85 190.15a3.66 3.66 0 0 0 1.14-2.73 3.87 3.87 0 1 0 -7.74 0 3.86 3.86 0 0 0 6.6 2.73z" fill="#78d394"/><path d="m390.5 190.72a6.06 6.06 0 0 0 1.86 4.49 6.34 6.34 0 0 0 9 0 6 6 0 0 0 1.88-4.49 6.38 6.38 0 1 0 -12.75 0z" fill="#78d394"/><path d="m411.07 196.73a6 6 0 0 0 1.89-4.49 6.4 6.4 0 0 0 -6.41-6.38 6.33 6.33 0 0 0 -6.34 6.38 6.07 6.07 0 0 0 1.85 4.49 6.31 6.31 0 0 0 9 0z" fill="#78d394"/><path d="m416 193.84a3.66 3.66 0 0 0 1.18-2.77 3.71 3.71 0 0 0 -1.18-2.78 3.77 3.77 0 0 0 -2.77-1.14 3.89 3.89 0 0 0 -3.92 3.92 3.73 3.73 0 0 0 1.14 2.77 3.8 3.8 0 0 0 2.75 1.16 3.75 3.75 0 0 0 2.8-1.16z" fill="#78d394"/><path d="m411 192a6.19 6.19 0 0 0 0-8.89 6.31 6.31 0 1 0 0 8.89z" fill="#78d394"/><path d="m412.17 192.62a2.59 2.59 0 0 0 -1.81-4.42 2.56 2.56 0 0 0 -1.86.76 2.63 2.63 0 0 0 0 3.66 2.54 2.54 0 0 0 1.86.78 2.38 2.38 0 0 0 1.81-.78z" fill="#e97a82"/><path d="m396.5 178.88a6.13 6.13 0 0 0 -4.46 1.84 6.3 6.3 0 1 0 8.91 8.9 6.18 6.18 0 0 0 0-8.9 6.08 6.08 0 0 0 -4.45-1.84z" fill="#78d394"/><path d="m394.12 188.46a3.5 3.5 0 0 0 0-5.13 3.38 3.38 0 0 0 -2.54-1.07 3.56 3.56 0 0 0 -2.59 1.07 3.67 3.67 0 0 0 2.59 6.23 3.34 3.34 0 0 0 2.54-1.1z" fill="#e97a82"/><path d="m400.24 177.24a4.17 4.17 0 0 0 -1.27 3.09 4.23 4.23 0 0 0 1.27 3.11 4.42 4.42 0 0 0 6.22 0 4.22 4.22 0 0 0 1.3-3.11 4.16 4.16 0 0 0 -1.3-3.09 4.44 4.44 0 0 0 -6.22 0z" fill="#78d394"/><path d="m409.64 188.73a2.14 2.14 0 0 0 .73-1.64 2.41 2.41 0 0 0 -2.37-2.37 2.32 2.32 0 0 0 -2.35 2.37 2.24 2.24 0 0 0 .68 1.64 2.2 2.2 0 0 0 1.67.72 2.14 2.14 0 0 0 1.64-.72z" fill="#ffa76c"/><g fill="#aee7c9"><path d="m398.57 188.92a3.27 3.27 0 0 0 2.4 1 3.21 3.21 0 0 0 2.38-1 3.3 3.3 0 0 0 0-4.75 3.24 3.24 0 0 0 -2.38-1 3.3 3.3 0 0 0 -2.4 1 3.42 3.42 0 0 0 0 4.75z"/><path d="m391 192.7a5.89 5.89 0 0 0 5.89 5.92 5.61 5.61 0 0 0 4.15-1.75 5.76 5.76 0 0 0 0-8.33 5.62 5.62 0 0 0 -4.15-1.72 5.84 5.84 0 0 0 -5.89 5.88z"/><path d="m407.71 193.59a3.91 3.91 0 0 0 0-5.62 4 4 0 1 0 0 5.62z"/><path d="m402.4 178.57a2.05 2.05 0 0 0 -.64 1.55 2.2 2.2 0 0 0 2.19 2.21 2.13 2.13 0 0 0 1.56-.65 2.09 2.09 0 0 0 .66-1.56 2 2 0 0 0 -.66-1.55 2.19 2.19 0 0 0 -3.11 0z"/><path d="m406.58 187.31a2.06 2.06 0 0 0 .67-1.56 2 2 0 0 0 -.67-1.55 2.05 2.05 0 0 0 -1.55-.65 2.12 2.12 0 0 0 -1.56.65 2.08 2.08 0 0 0 -.63 1.55 2.13 2.13 0 0 0 .63 1.56 2.16 2.16 0 0 0 1.53.69 2.09 2.09 0 0 0 1.58-.69z"/><path d="m395.94 185.53a2 2 0 0 0 .67-1.55 2 2 0 0 0 -.67-1.56 2.09 2.09 0 0 0 -1.55-.65 2.15 2.15 0 0 0 -1.56.65 2.09 2.09 0 0 0 -.63 1.56 2.11 2.11 0 0 0 .63 1.55 2.15 2.15 0 0 0 1.56.65 2.09 2.09 0 0 0 1.55-.65z"/><path d="m377.76 192.34a3.35 3.35 0 0 0 -1 2.5 3.53 3.53 0 0 0 3.52 3.55 3.34 3.34 0 0 0 2.51-1.06 3.29 3.29 0 0 0 1.07-2.49 3.22 3.22 0 0 0 -1.07-2.5 3.37 3.37 0 0 0 -2.51-1.05 3.43 3.43 0 0 0 -2.52 1.05z"/><path d="m374.1 194.3a2.28 2.28 0 0 0 1.6 3.87 2.27 2.27 0 0 0 0-4.53 2.19 2.19 0 0 0 -1.6.66z"/><path d="m374.67 192.19a2.27 2.27 0 0 0 2.25 2.27 2.09 2.09 0 0 0 1.59-.68 2.12 2.12 0 0 0 .7-1.59 2.09 2.09 0 0 0 -.7-1.6 2.11 2.11 0 0 0 -1.59-.67 2.22 2.22 0 0 0 -1.6.67 2.16 2.16 0 0 0 -.65 1.6z"/><path d="m382.36 189.72a2.08 2.08 0 0 0 .7-1.59 2.06 2.06 0 0 0 -.7-1.6 2.11 2.11 0 0 0 -1.58-.67 2.18 2.18 0 0 0 -1.6.67 2.12 2.12 0 0 0 -.65 1.6 2.27 2.27 0 0 0 2.25 2.27 2.08 2.08 0 0 0 1.58-.68z"/></g><path d="m366.14 191.32a2.26 2.26 0 0 0 0-3.33 2.21 2.21 0 0 0 -1.65-.68 2.35 2.35 0 0 0 -1.67 4 2.21 2.21 0 0 0 1.67.71 2.17 2.17 0 0 0 1.65-.7z" fill="#ffa76c"/><path d="m367.18 194.62a2.17 2.17 0 0 0 0-3.19 2.11 2.11 0 0 0 -1.58-.67 2.18 2.18 0 0 0 -1.6.67 2.28 2.28 0 0 0 0 3.19 2.15 2.15 0 0 0 1.6.68 2.08 2.08 0 0 0 1.58-.68z" fill="#aee7c9"/><path d="m360.13 196.51a3.44 3.44 0 0 0 0-5.06 3.35 3.35 0 0 0 -2.53-1 3.48 3.48 0 0 0 -2.53 1 3.62 3.62 0 0 0 2.53 6.15 3.28 3.28 0 0 0 2.53-1.09z" fill="#aee7c9"/><path d="m360.63 193.19a2.19 2.19 0 0 0 1.69-.73 2.4 2.4 0 0 0 -1.69-4.09 2.36 2.36 0 0 0 -1.71.7 2.43 2.43 0 0 0 1.71 4.12z" fill="#aee7c9"/><path d="m374.26 187.47a2.32 2.32 0 0 0 0-3.4 2.26 2.26 0 0 0 -1.68-.7 2.4 2.4 0 0 0 -1.72.7 2.43 2.43 0 0 0 1.72 4.13 2.22 2.22 0 0 0 1.68-.73z" fill="#aee7c9"/><path d="m374.27 185.64a1.47 1.47 0 0 0 .43 1.05 1.42 1.42 0 0 0 1.07.46 1.57 1.57 0 0 0 1.52-1.51 1.41 1.41 0 0 0 -.46-1.08 1.47 1.47 0 0 0 -1.06-.43 1.47 1.47 0 0 0 -1.5 1.51z" fill="#aee7c9"/><path d="m300.7 240.11-.28.42q-32 47.88-40.85 100.5l-8.57-2.76c1.55-20.87-.67-36.82 2.83-53l2.61-9.06 10.54-23 1.88-.87q7.73-3.64 14.94-7.79l1.72-1 2.85-1.69q1.73-1.06 3.42-2.16a5.2 5.2 0 0 1 -.57-2.36 5.13 5.13 0 0 1 10.26 0 5.06 5.06 0 0 1 -.78 2.77z" fill="#ffbbad"/><path d="m374.58 185a1 1 0 0 0 .79-.35 1 1 0 0 0 .33-.77 1.07 1.07 0 0 0 -.33-.81 1.09 1.09 0 0 0 -.79-.32 1.14 1.14 0 0 0 -.8.32 1.07 1.07 0 0 0 -.33.81 1 1 0 0 0 .33.77 1.06 1.06 0 0 0 .8.35z" fill="#aee7c9"/><path d="m387.06 186.63a2.13 2.13 0 0 0 .7-1.59 2.34 2.34 0 0 0 -2.29-2.27 2.25 2.25 0 0 0 -2.25 2.27 2.2 2.2 0 0 0 .65 1.59 2.17 2.17 0 0 0 1.6.68 2.09 2.09 0 0 0 1.59-.68z" fill="#ffa76c"/><path d="m399.65 188.42a3.56 3.56 0 0 0 -2.49-6.06 3.44 3.44 0 0 0 -2.52 1 3.56 3.56 0 0 0 0 5 3.39 3.39 0 0 0 2.52 1.08 3.23 3.23 0 0 0 2.49-1.02z" fill="#ffa76c"/><path d="m398.19 181a3.23 3.23 0 0 0 2.49-1.08 3.56 3.56 0 0 0 -2.49-6.06 3.44 3.44 0 0 0 -2.52 1.05 3.56 3.56 0 0 0 0 5 3.39 3.39 0 0 0 2.52 1.09z" fill="#ffa76c"/><path d="m367.22 176.24a3.56 3.56 0 0 0 0 5 3.37 3.37 0 0 0 2.52 1.08 3.54 3.54 0 0 0 2.49-6.09 3.31 3.31 0 0 0 -2.49-1.05 3.42 3.42 0 0 0 -2.52 1.06z" fill="#ffa76c"/><path d="m263 115v.3a46.7 46.7 0 0 0 2.76 20.7 21.43 21.43 0 0 0 6.44 2.14.57.57 0 0 0 .22 0 23.74 23.74 0 0 0 3.52.32q-7.55-13.1-12.94-23.46zm53.67-30.82a20.79 20.79 0 0 0 -6.34-15.29 23.92 23.92 0 0 0 -2.73-2.35 10.44 10.44 0 0 0 1.05-4.68 10.3 10.3 0 0 0 -3.13-7.56 10.61 10.61 0 0 0 -2.73-2 24.32 24.32 0 0 0 1.21-7.79 23.3 23.3 0 0 0 -7.09-17.1 24.53 24.53 0 0 0 -6.58-4.76 53 53 0 0 1 1.67 7.71 49.11 49.11 0 0 1 -.13 14 57.53 57.53 0 0 1 -5.11 16.3h-2.92a5.45 5.45 0 0 0 -5.45-5.34 6.7 6.7 0 0 0 -.86-8.39 6.74 6.74 0 0 0 -1.46-1.13c-.09.11-.19.21-.3.32a3.91 3.91 0 0 1 -2.89 1.21 4 4 0 0 1 -2.9-1.21l-.32-.33a4.13 4.13 0 0 1 .32-5.46 3.89 3.89 0 0 1 2.59-1.19 3.42 3.42 0 0 0 1.94-2.14 4.88 4.88 0 0 0 .25-1.78q9-6.1 12.45-13.79a25 25 0 0 0 1.37-3.83 17.31 17.31 0 0 0 .49-3.6q.12-4.8-2.65-6.42a6.28 6.28 0 0 0 -5-.25 5.36 5.36 0 0 0 .05-.7 3.69 3.69 0 0 0 -1.13-2.71 3.81 3.81 0 0 0 -5.2-.2c-.17-.19-.34-.37-.52-.55a10.7 10.7 0 0 0 -15.18 0 10.73 10.73 0 0 0 -2.24 3.2 18.05 18.05 0 0 0 -22.71 2.29 17.34 17.34 0 0 0 -5.28 12.72v1a8 8 0 0 0 -1.84-.21 7.92 7.92 0 0 0 -7.88 7.55 14.5 14.5 0 0 0 -11.36 14.08 13.92 13.92 0 0 0 4.22 10.2c.2.21.41.4.62.59a7.45 7.45 0 0 0 -.95 3.76 7.57 7.57 0 0 0 1.2 4.19 10.16 10.16 0 0 0 -2.08 1.62 10.35 10.35 0 0 0 -.46 14.1 7 7 0 0 0 -2.58 1.69 7.09 7.09 0 0 0 -2.18 5.22 7.55 7.55 0 0 0 .34 2.24c-.35.3-.69.63-1 1a23.78 23.78 0 0 0 0 33.72 26.6 26.6 0 0 0 2.11 1.9l20.79-26.87 14.31-18.49a17.1 17.1 0 0 1 1.93-2.29 15.88 15.88 0 0 1 11.6-4.87 16.85 16.85 0 0 1 4.76.66 15.93 15.93 0 0 1 6.9 4.17 16.14 16.14 0 0 1 3.9 6.08 452.07 452.07 0 0 0 16.77 49.1c.4 1 .83 2.09 1.28 3.19l.71-.71a23.08 23.08 0 0 0 2.72-2.37 22.61 22.61 0 0 0 6.88-15.9 11.48 11.48 0 0 0 5.27-3.08 11.27 11.27 0 0 0 3.44-8.28 12.38 12.38 0 0 0 -.38-3.08 23.42 23.42 0 0 0 2.06-1.84 20.78 20.78 0 0 0 6.37-15.27z" fill="#3f3f3f"/><path d="m300.73 233.38c-.72.61-1.45 1.2-2.18 1.8q-2.32 1.89-4.74 3.74t-4.9 3.6c-1.44 1-2.89 2-4.36 3q-6.9 4.62-14.34 8.74c-.6.34-1.21.67-1.82 1q-7.47 4.05-15.48 7.6-9.43 4.19-19.61 7.69-11.9 4.08-24.81 7.25a200.8 200.8 0 0 1 -32.1-50.26q-16.78-38.9 6.52-72l24.43-31.54 20.79-26.87q-.25.36-.48.72a15.33 15.33 0 0 0 -1.87 4.34 16.8 16.8 0 0 0 -.54 4.31 16.62 16.62 0 0 0 11.76 15.84h.06c.41.12.84.21 1.27.3a17.57 17.57 0 0 0 3.36.31h.43a15.8 15.8 0 0 0 11-4.63l.19-.19c.35-.35.68-.7 1-1.06l.25-.32.5-.63 5-6.46.08.11c.08.16.17.33.26.52.52 1 1.24 2.42 1.76 3.45.09.17.17.32.24.47l.21.4.25.49.07.18a46.7 46.7 0 0 0 2.76 20.7l.31.85a38.18 38.18 0 0 1 -12.21 10.2l-10.29 37.4z" fill="#f7d472"/><path d="m263 115v.3l-.07-.18-.25-.49-.21-.4c-.07-.15-.15-.3-.24-.47-.52-1-1.24-2.42-1.76-3.45-.09-.19-.18-.36-.26-.52l-.08-.11.12-.16c.86 1.76 1.75 3.58 2.75 5.48z" fill="#f7d472"/><path d="m292 30.36a53 53 0 0 0 -1.65-7.71q-.75-2.53-1.76-5.06a25 25 0 0 1 -1.37 3.83q-3.46 7.68-12.45 13.79a4.88 4.88 0 0 1 -.25 1.78 3.42 3.42 0 0 1 -1.95 2.11 3.89 3.89 0 0 0 -2.57 1.19 4.13 4.13 0 0 0 -.32 5.46l.32.33a4 4 0 0 0 2.9 1.21 3.91 3.91 0 0 0 2.89-1.21c.11-.11.21-.21.3-.32a6.74 6.74 0 0 1 1.46 1.13 6.7 6.7 0 0 1 .86 8.39c1.51 0-2.56 3.76-1.13 4.2a19.15 19.15 0 0 0 6.58 1.14h2.92a57.53 57.53 0 0 0 5.11-16.3 49.11 49.11 0 0 0 .11-13.96zm24.07 158.15-2.76-5.14 1.21-.38 1.87-1.33-.49-.43-5.58-1.14q-13.77-28.67-20.67-45.38c-.45-1.1-.88-2.16-1.28-3.19a452.07 452.07 0 0 1 -16.77-49.1 16.14 16.14 0 0 0 -3.9-6.08 15.93 15.93 0 0 0 -6.9-4.17 16.85 16.85 0 0 0 -4.76-.66 15.88 15.88 0 0 0 -11.66 4.83 17.1 17.1 0 0 0 -1.93 2.29l-14.32 18.49q-.25.36-.48.72a15.33 15.33 0 0 0 -1.87 4.34 16.8 16.8 0 0 0 -.54 4.31 16.62 16.62 0 0 0 11.76 15.85h.06c.41.12.84.21 1.27.3a17.57 17.57 0 0 0 3.36.31h.43a15.8 15.8 0 0 0 11-4.63l.19-.19c.35-.35.68-.7 1-1.06l.25-.32.5-.63 5-6.46.12-.16c.88 1.76 1.8 3.58 2.78 5.48 3.58 6.9 8 21 9.11 22.71l.28.47 4 6.73 25 37.48.49 4.58.51 4.76 1.14.73 3.29 2.1h.06l10.16-4.27z" fill="#ffbbad"/><path d="m293.89 30.65-5.89 2.22 2.25 9.47 3.62 2a34.45 34.45 0 0 0 .02-13.69z" fill="#fff2f0"/><path d="m293.89 30.65h.14a.86.86 0 0 0 .53-.51.92.92 0 0 0 -.48-1.25 1 1 0 0 0 -.73 0l-6.68 2.54-15.13 5.76a.94.94 0 0 0 -.53.49.93.93 0 0 0 0 .73 1 1 0 0 0 1.22.55l14-5.34 2.28 9.64a1 1 0 0 0 .17.35 1 1 0 0 0 .29.26l4.23 2.37a1 1 0 0 0 1.31-.36.89.89 0 0 0 .07-.73.87.87 0 0 0 -.44-.57l-.25-.14-3.62-2-2.27-9.57z" fill="#79c9bf"/><path d="m277.05 362.57a.6.6 0 0 1 -.18-.06q-9.4-.84-20-7.23l-15.87-9.14-1-.56-1.2 4.9 16.45 9.44a56.16 56.16 0 0 0 15.35 6.26 51.1 51.1 0 0 0 5.65.92q7 .76 11.43-1.34l-1.52-4.08q-.54.1-1 .24a3.34 3.34 0 0 0 -1 .25 28.7 28.7 0 0 1 -7 .38l-.11-.74z" fill="#303030"/><path d="m276.87 362.51a.6.6 0 0 0 .18.06l-.1-.74-.7-4.95a32.06 32.06 0 0 1 -8.51-7.68.25.25 0 0 0 -.07-.09 15.15 15.15 0 0 1 -3.09-7.65l-.75-.38-3.41-.38.35 3v.05a10.73 10.73 0 0 1 -2 1.32q-.42.22-.87.42l-4.12 1h-.26l-7.43-4.22-1.19-.69-3.9 4.56 15.82 9.14q10.65 6.39 20.05 7.23z" fill="#f7d472"/><path d="m278.7 356.69c-.68-.18-1.43-.36-2.26-.53a.5.5 0 0 1 -.2-.09v.81l.7 4.95.11.74a28.7 28.7 0 0 0 7-.38 3.34 3.34 0 0 1 1-.25q-1.14-3.57-6.4-5.25m-26.32-19.34c-.66-.56-1.34-1.17-2-1.82l-1.33 3.47-2.88 3.28 7.43 4.22h.26l4.12-1q.45-.2.87-.42a10.73 10.73 0 0 0 2-1.32v-.05l-.35-3a17.88 17.88 0 0 1 -6.32-2.32 13.26 13.26 0 0 1 -1.75-1.04z" fill="#fbf9ec"/><path d="m272.86 353.64a.56.56 0 0 0 -.16-.52.51.51 0 0 0 -.46-.3.88.88 0 0 0 -.46.05l-.49.39c-.34-.22-.68-.45-1-.7l.36-.27a.8.8 0 0 0 .26-.44.77.77 0 0 0 -.16-.57.61.61 0 0 0 -.48-.27.6.6 0 0 0 -.51.13l-.73.55c-.33-.23-.66-.47-1-.73l.89-.62a.53.53 0 0 0 .14-.44.61.61 0 0 0 -.08-.57.7.7 0 0 0 -.44-.26.47.47 0 0 0 -.54.12l-1.11.9a8.79 8.79 0 0 0 -.9-.84l1.36-1a.76.76 0 0 0 .19-.52.92.92 0 0 0 -.08-.6 1.58 1.58 0 0 0 -.44-.26.46.46 0 0 0 -.51.16l-1.51 1.16a6.46 6.46 0 0 0 -.73-.84l1.79-1.46a.58.58 0 0 0 .27-.48.51.51 0 0 0 -.11-.55.7.7 0 0 0 -.52-.31c-.13-.07-.27 0-.43.12l-1.92 1.45a7.91 7.91 0 0 1 -.62-.93l2.53-2a1.06 1.06 0 0 0 .23-.51 1.73 1.73 0 0 0 -.11-.52 1.17 1.17 0 0 0 -.46-.33.79.79 0 0 0 -.54.19l-2.46 1.87-.47-.86a.75.75 0 0 0 -.43-.36.62.62 0 0 0 -.54.11c-.17 0-.26.17-.27.4a.61.61 0 0 0 .05.55c.27.51.57 1 .89 1.52v.08a25.58 25.58 0 0 0 1.51 2.19s0 .07.11.11q.72 1 1.56 1.92l.16.1c.59.62 1.23 1.24 1.92 1.84q1 .81 2.13 1.65h.08c.74.49 1.52 1 2.33 1.5a38.67 38.67 0 0 0 5.08 2.46.37.37 0 0 0 .47 0 .7.7 0 0 0 .4-.41.45.45 0 0 0 -.08-.52.6.6 0 0 0 -.35-.42 42.32 42.32 0 0 1 -4-1.8 1.24 1.24 0 0 0 .39-.31z" fill="#efbd65"/><path d="m267.58 245.25a119.62 119.62 0 0 1 -28.17-3.31 130.7 130.7 0 0 1 -37-15.51 1 1 0 0 1 -.32-1.31.94.94 0 0 1 1.3-.32 128.44 128.44 0 0 0 36.48 15.29 120.13 120.13 0 0 0 12.62 2.31 123.86 123.86 0 0 0 32.17-.21 1 1 0 0 1 .26 1.89 130.23 130.23 0 0 1 -17.34 1.17z" fill="#efbd65"/><path d="m240.41 182.72a.92.92 0 0 1 -.62-.23l-12-10.29a1 1 0 0 1 -.1-1.34.94.94 0 0 1 1.34-.1l12 10.29a1 1 0 0 1 -.62 1.67z" fill="#efbd65"/><path d="m528.88 352.75a46.12 46.12 0 0 0 -18.07 8.78 46.33 46.33 0 0 0 -3.69-19.85 35.1 35.1 0 0 0 -3.27-6 37.47 37.47 0 0 0 -5.34 4.22q-10.86 10.1-14.34 26.87c-.23 1.12-.44 2.23-.6 3.34-.58-1-1.18-1.94-1.81-2.9q-9.39-14.33-23.19-19.79a34 34 0 0 0 -6.54-1.91 41 41 0 0 0 -.81 6.76q-.5 14.82 8.89 29.14a55.23 55.23 0 0 0 11.89 13.3h40.91a58.35 58.35 0 0 0 9.49-8.62q11.4-12.76 13.1-27.51a36.56 36.56 0 0 0 .16-6.81 38.1 38.1 0 0 0 -6.78.98z" fill="#3ad282"/><path d="m474.13 369.67a27.39 27.39 0 0 0 -10.78 5.24 27.53 27.53 0 0 0 -2.2-11.84 21.78 21.78 0 0 0 -1.95-3.56 22.1 22.1 0 0 0 -3.2 2.49q-6.48 6-8.56 16c-.14.67-.26 1.33-.36 2q-.51-.87-1.08-1.74-5.6-8.54-13.83-11.81a20 20 0 0 0 -3.9-1.13 23.51 23.51 0 0 0 -.49 4q-.3 8.83 5.3 17.38a33.08 33.08 0 0 0 7.07 7.92h24.41a35.06 35.06 0 0 0 5.66-5.14q6.81-7.62 7.82-16.42a21.52 21.52 0 0 0 .1-4.06 22 22 0 0 0 -4.01.67z" fill="#2c765b"/><path d="m128.92 338.87a61.31 61.31 0 0 0 -24.12 11.71 61.69 61.69 0 0 0 -4.94-26.49 46.2 46.2 0 0 0 -4.36-8 50.27 50.27 0 0 0 -7.13 5.63q-14.49 13.49-19.15 35.87c-.31 1.5-.58 3-.8 4.47-.77-1.3-1.57-2.59-2.42-3.87q-12.54-19.08-31-26.39a44.79 44.79 0 0 0 -8.72-2.54 51.82 51.82 0 0 0 -1.08 9q-.65 19.74 11.9 38.92a73.3 73.3 0 0 0 15.82 17.7h54.61a77.61 77.61 0 0 0 12.66-11.5q15.24-17 17.5-36.74a48.16 48.16 0 0 0 .21-9.08 50.58 50.58 0 0 0 -8.98 1.31z" fill="#3ad282"/><path d="m67.92 369.67a27.39 27.39 0 0 0 -10.78 5.24 27.67 27.67 0 0 0 -2.2-11.84 21.78 21.78 0 0 0 -1.94-3.56 22.1 22.1 0 0 0 -3.2 2.49q-6.48 6-8.56 16c-.14.67-.26 1.33-.36 2q-.51-.87-1.08-1.74a29.62 29.62 0 0 0 -13.8-11.75 19.59 19.59 0 0 0 -3.9-1.13 24.59 24.59 0 0 0 -.48 4q-.3 8.83 5.3 17.38a32.87 32.87 0 0 0 7.08 7.95h24.36a35.06 35.06 0 0 0 5.64-5.14 29.53 29.53 0 0 0 7.82-16.42 21.48 21.48 0 0 0 .09-4.06 22 22 0 0 0 -3.99.58z" fill="#2c765b"/><path d="m128 384.41a11.2 11.2 0 0 0 -4.43 2.15 11.34 11.34 0 0 0 -.91-4.87 8.1 8.1 0 0 0 -.8-1.46 9.22 9.22 0 0 0 -1.31 1 12.08 12.08 0 0 0 -3.52 6.6c-.06.27-.11.55-.15.82-.14-.24-.29-.48-.44-.71a12.13 12.13 0 0 0 -5.7-4.86 8 8 0 0 0 -1.6-.47 9.43 9.43 0 0 0 -.2 1.66 12.12 12.12 0 0 0 2.18 7.15 13.6 13.6 0 0 0 2.91 3.26h10a14.33 14.33 0 0 0 2.33-2.12 12.13 12.13 0 0 0 3.22-6.75 8.56 8.56 0 0 0 0-1.67 8.43 8.43 0 0 0 -1.58.27z" fill="#2c765b"/><path d="m289.08 14a17.31 17.31 0 0 1 -.49 3.6 25 25 0 0 1 -1.37 3.83q-3.47 7.68-12.45 13.79a4.88 4.88 0 0 1 -.25 1.78 3.42 3.42 0 0 1 -1.95 2.11 3.89 3.89 0 0 0 -2.57 1.18 4 4 0 0 0 -1.2 2.9 4 4 0 0 0 .34 1.68 4.25 4.25 0 0 0 .54.88l.32.33a4 4 0 0 0 2.9 1.21 3.91 3.91 0 0 0 2.89-1.21c.11-.11.21-.21.3-.32a6.74 6.74 0 0 1 1.46 1.13 6.7 6.7 0 0 1 .86 8.39 5.22 5.22 0 0 1 3.85 1.59 5.74 5.74 0 0 1 .61.71 9.82 9.82 0 0 1 -3.14 3.82 7.22 7.22 0 0 1 .74 3.22 7.37 7.37 0 0 1 -7.39 7.38 3 3 0 0 1 -.42 0 7.37 7.37 0 0 1 -5.13 4.21 15.79 15.79 0 0 0 -6.73-4 16.34 16.34 0 0 0 -1.71-.4 17.93 17.93 0 0 0 -3-.26 15.88 15.88 0 0 0 -11.66 4.83 17.1 17.1 0 0 0 -1.93 2.29l-14.36 18.45-20.79 26.88a26.6 26.6 0 0 1 -2.11-1.9 23.78 23.78 0 0 1 0-33.72c.34-.34.68-.67 1-1a7.55 7.55 0 0 1 -.34-2.24 7.09 7.09 0 0 1 2.18-5.22 7 7 0 0 1 2.58-1.69 10.35 10.35 0 0 1 .46-14.1 10.16 10.16 0 0 1 2.08-1.62 7.57 7.57 0 0 1 -1.2-4.19 7.45 7.45 0 0 1 .95-3.76c-.21-.19-.42-.38-.62-.59a14.41 14.41 0 0 1 0-20.38 13.88 13.88 0 0 1 7.14-3.93 7.92 7.92 0 0 1 7.88-7.55 8 8 0 0 1 1.84.21c0-.32 0-.64 0-1a17.34 17.34 0 0 1 5.28-12.72 18.05 18.05 0 0 1 22.71-2.29 10.73 10.73 0 0 1 2.24-3.2 10.7 10.7 0 0 1 15.18 0c.18.18.35.36.52.55a3.81 3.81 0 0 1 5.2.2 3.69 3.69 0 0 1 1.13 2.71 5.36 5.36 0 0 1 -.05.7 6.28 6.28 0 0 1 5 .25q2.8 1.67 2.68 6.48z" fill="#303030"/><path d="m316.76 190.33-9.94 4.23-.11.05-3.34-2.13-1.13-.73-.51-4.76-.49-4.58-25-37.42s-.58-.85-1.54-2.37v-.05l-2.12-3.57-.25-.53-.15-.33c-.62-1.34-1.4-3.18-2.25-5.24-2.5-6.06-5.57-14-6.64-16.78a.14.14 0 0 0 0-.06s0 0 0-.06c-.12-.32-.22-.55-.27-.7l-.07-.18-.25-.49-.21-.4c-.07-.15-.15-.3-.24-.47-.52-1-1.24-2.42-1.76-3.45-.09-.19-.18-.36-.26-.52l-.08-.11-10.47-13.68-1.77 3.71-10.82 22.7h-.06a16.62 16.62 0 0 1 -11.79-15.85 16.8 16.8 0 0 1 .54-4.31 15.33 15.33 0 0 1 1.87-4.34l.34-.44 6.85-8.85q1.26-1.45 2.31-2.52a15.89 15.89 0 0 1 11.64-4.82 16.72 16.72 0 0 1 4.75.66 15.92 15.92 0 0 1 6.89 4.06 16.19 16.19 0 0 1 3.82 5.84c0 .07.05.15.08.24l18.25 37 25.48 51.65 3.06 6.91 5.58 2.56z" fill="#e3816d" opacity=".5"/><path d="m252.43 263.12q-4.69 2.08-9.59 4c-1.43.57-2.88 1.12-4.34 1.65-1.86.7-3.74 1.37-5.64 2q-11.86 4.1-24.77 7.23a200.49 200.49 0 0 1 -32.09-50.16q-15.84-36.74 4.09-68.28c.72-1.14 1.48-2.27 2.27-3.4l24.43-31.56.55-.72.13.11 20.79-26.87q-.25.36-.48.72a15.33 15.33 0 0 0 -1.87 4.34 16.8 16.8 0 0 0 -.54 4.31 16.61 16.61 0 0 0 11.52 15.76l-.34.72-20.22 42.4q-9.88 18.24 0 32.82l35.52 45.43a119.15 119.15 0 0 1 -12.7-2.34z" fill="#efbd65"/></svg>