<svg xmlns="http://www.w3.org/2000/svg" width="531" height="552" fill="none" viewBox="0 0 531 552">
    <g clip-path="url(#clip0)">
        <g opacity=".3">
            <path fill="#fff" d="M45.007 541.997c-15.602-11.165-23.752-29.077-22.122-48.384l41.45-444.996c1.863-19.307 13.04-35.59 30.505-43.732 17.465-7.91 36.793-6.048 52.627 4.885l360.941 258.437c15.602 11.166 23.752 29.077 22.122 48.385-1.863 19.307-13.273 35.357-30.505 43.499L97.635 547.115c-17.233 7.909-37.026 6.048-52.628-5.118z" opacity=".8"/>
        </g>
        <path fill="#fff" d="M453.92 225.406c0-67.924-69.627-122.822-155.554-122.822s-155.554 54.898-155.554 122.822 69.627 122.821 155.554 122.821S453.92 293.33 453.92 225.406z"/>
        <path fill="#E1E43B" d="M386.624 217.032l13.273 1.861-9.548 9.537 2.329 13.259-11.876-6.281-11.876 6.281 2.328-13.259-9.547-9.537 13.04-1.861 6.055-12.096 5.822 12.096zM346.799 217.032l13.274 1.861-9.548 9.537 2.329 13.259-11.876-6.281-11.876 6.281 2.328-13.259-9.547-9.537 13.04-1.861 6.055-12.096 5.821 12.096zM305.12 217.032l13.273 1.861-9.548 9.537 2.329 13.259-11.876-6.281-11.876 6.281 2.329-13.259-9.548-9.537 13.041-1.861 6.054-12.096 5.822 12.096zM263.436 217.032l13.273 1.861-9.547 9.537 2.329 13.259-11.877-6.281-11.876 6.281 2.329-13.259-9.547-9.537 13.04-1.861 6.054-12.096 5.822 12.096zM221.985 217.032l13.041 1.861-9.548 9.537 2.329 13.259-11.876-6.281-11.876 6.281 2.328-13.259-9.547-9.537 13.273-1.861 5.822-12.096 6.054 12.096z"/>
        <path fill="#96C83E" d="M301.625 400.567c0 1.395 1.164 2.558 2.561 2.558h11.644c1.397 0 2.561-1.163 2.561-2.558 0-1.396-1.164-2.559-2.561-2.559h-11.644c-1.397 0-2.561 1.163-2.561 2.559z"/>
        <path fill="#96C83E" d="M209.645 365.674c0 20.703 16.533 37.452 37.025 37.452 20.492 0 37.025-16.749 37.025-37.452 0-13.492-7.218-25.355-17.93-32.101l3.027-9.537 37.258 44.895c-.931 1.628-1.63 3.722-1.63 5.815 0 6.281 5.123 11.399 11.411 11.399 5.356 0 9.78-3.722 10.944-8.84 4.891 14.888 18.862 25.588 35.163 25.588 20.492 0 37.026-16.748 37.026-37.451s-16.534-37.452-37.026-37.452c-6.287 0-12.342 1.629-17.465 4.42l-6.52-11.166 4.89-14.887c.466-1.628.233-3.024-.698-4.187l3.027-9.305h9.314c2.096 0 3.726-1.628 3.726-3.722 0-1.395-.931-2.791-1.863-3.256-.465-.466-.931-.466-1.63-.466h-28.875c-1.397 0-2.562 1.163-2.562 2.559 0 1.396 1.165 2.559 2.562 2.559h13.506c0 .233.233.465.466.93l-3.027 9.072c-1.165.466-2.329 1.629-2.795 2.792l-3.26 11.398-57.983-3.954 2.561-8.142c.233-.698 0-1.628-.233-2.094-.465-.697-.931-1.163-1.862-1.163l-24.917-3.954-11.876-8.142c-.931-.465-2.096-.465-3.027 0-.466.233-3.959 3.024-4.89 6.979-.466 2.093 0 4.187 1.397 6.048 3.726 5.583 8.849 8.374 8.849 8.374 1.397.698 3.027.233 3.493-1.163.698-1.396.232-3.024-1.165-3.722 0 0-4.191-2.326-7.219-6.746-.465-.93-.465-1.628-.465-2.093.233-.931.698-1.629 1.397-2.326l10.712 7.443c.233.233.698.233.931.465l22.588 3.722-3.726 11.864c-.233.465-.466.93-.466 1.628l-4.191 13.492c-4.425-1.861-9.315-2.791-14.205-2.791-20.026-.233-36.56 16.515-36.792 37.218zm130.171-30.007c-3.959 3.024-7.452 6.978-10.013 11.398l6.054-18.609 3.959 7.211zm15.136 52.106c.466-.465.932-.465 1.397-.698h.466c1.397.233 2.329 1.396 2.096 2.791 0 1.164-1.165 2.094-2.329 2.327-1.164 0-2.561-.698-2.794-1.861.233-.931.698-1.861 1.164-2.559zm-29.108-20.703c0-1.396 1.164-2.559 2.562-2.559h27.245l-14.904-26.751c-.698-1.163-.233-2.791.932-3.489 1.164-.698 2.794-.233 3.493.93l16.999 30.706c.466.698.466 1.861 0 2.559-.466.93-1.397 1.395-2.329 1.395h-31.436c-1.398 0-2.562-1.395-2.562-2.791zm-17.232 7.909c0-.931 0-1.628.466-2.326l3.958 4.652c.932 1.163 2.096 1.628 3.493 1.628h.932c1.63-.232 3.027-1.628 3.493-3.024l1.397-4.419c.699 1.163.931 2.326.931 3.722 0 4.187-3.26 7.443-7.218 7.443-4.192-.232-7.452-3.489-7.452-7.676zm-31.204-54.432l50.299 3.489-9.315 28.379h-3.027c-1.397 0-2.561 1.163-2.561 2.559 0 1.396 1.164 2.559 2.561 2.559h1.164l-1.863 6.048c-.465 0-.931 0-1.63.232l-35.628-43.266zm-17.698 15.818l-14.204 26.75h-30.273c.233-3.256.932-6.745 2.329-9.769 1.63-3.722 3.959-7.212 6.753-10.236 3.027-3.024 6.287-5.35 10.013-6.745 3.959-1.629 8.15-2.559 12.342-2.559s8.383.698 12.342 2.559h.698zm6.521 54.665l-16.301-25.356 14.205-26.751c1.63 1.163 3.493 2.559 4.89 4.187 3.027 3.024 5.123 6.281 6.753 10.236 1.63 3.954 2.562 8.141 2.562 12.561s-.699 8.607-2.562 12.561c-1.63 3.722-3.959 7.211-6.753 10.235-.699.698-1.63 1.396-2.794 2.327zm-50.998-22.564h30.273l16.3 25.587c-.931.466-1.63.931-2.561 1.396-3.959 1.629-8.151 2.559-12.342 2.559-4.192 0-8.383-.698-12.342-2.559-3.726-1.628-7.219-3.954-10.013-6.746-3.027-3.024-5.123-6.28-6.753-10.235-1.63-3.489-2.329-6.746-2.562-10.002z"/>
        <path fill="#3F4B70" d="M242.943 315.661c-7.684-3.722-23.286-1.861-23.286-1.861 0-13.957-5.822-20.703-9.78-20.237-3.493-1.861 2.328 26.983-1.63 40.475-9.548 10.7-27.246 19.772-34.93 11.863-9.082-9.304-16.999-23.959-23.287-35.357-6.986-12.329-11.876-21.401-25.382-26.053-11.876-3.955-63.106 1.395-72.886 8.374-10.014 7.211-13.972 17.213-22.123 30.007-4.657 6.979-17.697 40.243-23.985 57.457-2.561 6.978-3.726 12.561-5.123 20.005h42.382c.233-1.861.931-2.792 1.397-4.187 2.794-8.142 5.821-16.051 8.616-24.193h.465c.233.931.7 1.629.7 2.792.232 8.374.232 17.214 0 25.588H148.4c0-4.885-2.095-16.283-2.095-21.634 3.027 2.327 13.739 10.468 15.834 11.864 13.041 9.072 23.287 12.794 42.847-10.933 5.822-6.746 17-25.123 21.89-33.264 3.493.465 9.081.465 9.547.232 13.041-6.28 10.945-28.844 6.52-30.938zM93.676 188.42c.465 0 .698.465 1.164.465 21.191 3.024 36.094 21.866 33.765 43.732-1.862 17.679-17.464 33.264-35.162 34.892-19.095 1.629-37.026-11.165-41.916-29.077-3.726-13.724 1.165-31.17 11.876-40.242 6.288-5.351 13.74-8.142 21.424-10.003 3.027 0 6.054 0 8.849.233z"/>
        <path fill="#fff" d="M119.761 256.111c-11.178 8.607-24.451 12.794-37.492 12.794 21.89 18.144 54.258 19.54 77.777 1.629 6.055-4.885 11.178-10.468 15.137-16.749l-30.971-40.708c-1.863 16.516-10.014 32.101-24.451 43.034z"/>
    </g>
    <defs>
        <clipPath id="clip0">
            <path fill="#fff" d="M0 0H530V552H0z" transform="translate(.531)"/>
        </clipPath>
    </defs>
</svg>
