<svg xmlns="http://www.w3.org/2000/svg" width="513" height="537" fill="none" viewBox="0 0 513 537">
    <g clip-path="url(#clip0)">
        <g opacity=".8">
            <path fill="#fff" d="M40.705 527.269c-15.162-10.862-23.082-28.287-21.498-47.069l40.28-432.904c1.811-18.783 12.9-34.397 29.645-42.318 16.746-7.92 35.755-6.11 51.143 4.526L491.033 260.92c15.161 10.862 23.082 28.287 21.498 47.07-1.811 18.782-12.899 34.397-29.645 42.317L91.848 532.248c-16.972 7.694-35.981 5.883-51.143-4.979z" opacity=".3"/>
        </g>
        <path fill="#fff" d="M151.591 372.03c83.503 0 151.165-53.406 151.165-119.484 0-66.079-67.662-119.484-151.165-119.484C68.088 133.062.426 186.694.426 252.546S68.088 372.03 151.59 372.03z"/>
        <path fill="#E1E43B" d="M71.482 232.632l5.884 11.767 12.672 1.811-9.278 9.278 2.263 12.899-11.541-6.11-11.541 6.11 2.263-12.899-9.278-9.278 12.899-1.811 5.657-11.767zM110.181 232.632l5.884 11.767 12.672 1.811-9.278 9.278 2.263 12.899-11.541-6.11-11.54 6.11 2.262-12.899-9.278-9.278 12.899-1.811 5.657-11.767zM150.685 232.632l5.884 11.767 12.672 1.811-9.278 9.278 2.263 12.899-11.541-6.11-11.541 6.11 2.263-12.899-9.278-9.278 12.899-1.811 5.657-11.767zM191.197 232.632l5.884 11.767 12.672 1.811-9.278 9.278 2.263 12.899-11.541-6.11-11.541 6.11 2.263-12.899-9.278-9.278 12.898-1.811 5.658-11.767zM231.701 232.632l5.657 11.767 12.899 1.811-9.278 9.278 2.263 12.899-11.541-6.11-11.541 6.11 2.263-12.899-9.278-9.278 12.672-1.811 5.884-11.767z"/>
        <path fill="#96C83E" d="M139.598 422.947c0 1.358 1.131 2.489 2.489 2.489h11.315c1.357 0 2.489-1.131 2.489-2.489 0-1.358-1.132-2.489-2.489-2.489h-11.315c-1.358 0-2.489 1.131-2.489 2.489z"/>
        <path fill="#96C83E" d="M50.21 389.002c0 20.141 16.068 36.434 35.982 36.434 19.914 0 35.981-16.293 35.981-36.434 0-13.125-7.015-24.666-17.425-31.229l2.942-9.278 36.207 43.675c-.905 1.584-1.584 3.621-1.584 5.658 0 6.11 4.979 11.088 11.089 11.088 5.204 0 9.504-3.62 10.635-8.599 4.753 14.483 18.33 24.893 34.171 24.893 19.914 0 35.981-16.294 35.981-36.434 0-20.14-16.067-36.434-35.981-36.434-6.11 0-11.994 1.584-16.972 4.3L174.9 345.78l4.752-14.483c.452-1.584.226-2.942-.679-4.073l2.942-9.052h9.052c2.036 0 3.62-1.584 3.62-3.621 0-1.358-.905-2.716-1.81-3.168-.453-.453-.905-.453-1.584-.453h-28.061c-1.358 0-2.489 1.132-2.489 2.489 0 1.358 1.131 2.49 2.489 2.49h13.125c0 .226.227.452.453.905l-2.942 8.825c-1.131.453-2.263 1.585-2.715 2.716l-3.169 11.088-56.347-3.847 2.489-7.92c.226-.679 0-1.584-.226-2.037-.453-.678-.905-1.131-1.81-1.131l-24.214-3.847-11.541-7.92c-.905-.453-2.037-.453-2.942 0-.453.226-3.847 2.941-4.752 6.788-.453 2.037 0 4.074 1.358 5.884 3.62 5.431 8.599 8.147 8.599 8.147 1.358.679 2.942.226 3.394-1.132.68-1.357.227-2.942-1.131-3.62 0 0-4.073-2.263-7.015-6.563-.453-.905-.453-1.584-.453-2.037.226-.905.679-1.584 1.358-2.263l10.41 7.242c.226.226.678.226.905.452l21.95 3.621-3.621 11.541c-.226.453-.452.905-.452 1.584L99.77 355.51c-4.3-1.81-9.052-2.715-13.804-2.715-19.462-.226-35.529 16.067-35.755 36.207zm126.5-29.192c-3.847 2.942-7.242 6.789-9.731 11.089l5.884-18.104 3.847 7.015zm14.709 50.69c.453-.452.905-.452 1.358-.679h.452c1.358.227 2.263 1.358 2.037 2.716 0 1.132-1.131 2.037-2.263 2.263-1.131 0-2.489-.679-2.715-1.81.226-.906.679-1.811 1.131-2.49zm-28.287-20.14c0-1.358 1.132-2.489 2.489-2.489h26.477l-14.483-26.024c-.679-1.132-.226-2.716.905-3.395 1.132-.679 2.716-.226 3.395.906l16.519 29.871c.453.678.453 1.81 0 2.489-.452.905-1.358 1.358-2.263 1.358h-30.55c-1.357 0-2.489-1.358-2.489-2.716zm-16.746 7.694c0-.905 0-1.584.453-2.263l3.847 4.526c.905 1.132 2.037 1.584 3.394 1.584h.906c1.584-.226 2.941-1.584 3.394-2.942l1.358-4.299c.679 1.131.905 2.263.905 3.62 0 4.074-3.168 7.242-7.015 7.242-4.073-.226-7.242-3.395-7.242-7.468zm-30.323-52.953l48.88 3.394-9.052 27.608h-2.942c-1.358 0-2.489 1.132-2.489 2.49 0 1.357 1.131 2.489 2.489 2.489h1.131l-1.81 5.884c-.453 0-.905 0-1.584.226l-34.623-42.091zm-17.199 15.388L85.06 386.513H55.642c.226-3.168.905-6.563 2.263-9.504 1.584-3.621 3.847-7.016 6.563-9.957 2.941-2.942 6.11-5.205 9.73-6.563 3.847-1.584 7.92-2.489 11.994-2.489 4.073 0 8.147.679 11.994 2.489h.678zm6.337 53.18L89.36 389.002l13.804-26.024c1.584 1.132 3.394 2.489 4.752 4.074 2.942 2.941 4.979 6.11 6.563 9.957 1.584 3.847 2.489 7.92 2.489 12.22 0 4.299-.679 8.372-2.489 12.22-1.584 3.62-3.847 7.015-6.563 9.957-.679.678-1.584 1.357-2.715 2.263zm-49.559-21.951H85.06l15.841 24.892c-.905.453-1.584.906-2.49 1.358-3.846 1.584-7.92 2.489-11.993 2.489s-8.147-.679-11.994-2.489c-3.62-1.584-7.015-3.847-9.73-6.562-2.942-2.942-4.979-6.11-6.563-9.957-1.584-3.395-2.263-6.563-2.489-9.731z"/>
        <path fill="#fff" d="M301.398 240.552l-30.097 39.602c3.847 6.11 8.825 11.541 14.709 16.293 22.856 17.425 54.311 16.067 75.583-1.584-12.673 0-25.572-4.073-36.434-12.446-14.03-10.636-21.951-25.798-23.761-41.865z"/>
        <path fill="#3F4A6F" d="M372.23 218.602c-12.447 0-23.309 5.657-30.324 14.709l-22.856.227c-7.467.226-11.993 1.584-13.577 7.467l24.666 7.468 4.299 1.358 23.988 7.241-24.666-3.168c-.227 1.132-.227 2.489-.227 3.621 0 21.498 5.884 35.528 27.608 35.528 21.498 0 61.326-11.767 61.326-33.491-.452-21.499-28.739-40.96-50.237-40.96z"/>
        <path fill="#3F4B70" d="M222.873 355.737c.226.226.453.905.905 1.81 3.168 4.526 8.599 8.373 20.593 5.657 13.578-3.168 16.52-10.862 16.972-14.709-1.131-13.125 7.015-33.039 3.168-33.039-5.204 0-7.467 2.942-14.256 15.841 0 0-9.731-7.242-18.556-7.468-4.979-.226-17.651 19.688-8.826 31.908zM314.977 424.983h87.576c-.227-8.825-2.037-72.641 4.978-104.548-2.489-1.811-8.146-3.621-15.162-4.979-5.204 20.819-5.657 52.501-5.657 52.501l-46.164-4.526s2.715-39.828 8.599-52.501c-5.657 0-10.183.453-12.672 1.358-.906.226-1.584.679-2.49.905-9.278 18.33-16.745 85.993-19.008 111.79z"/>
        <path fill="#3F4B70" d="M324.479 319.529c-4.979 4.752-8.373 10.862-12.673 18.103-6.11 11.089-18.103 31.003-26.929 40.055-6.11 6.336-10.862-6.789-21.045-19.009-.906 4.752-8.6 8.599-15.162 11.088-3.621 1.358-8.599 2.942-14.936 1.132 7.242 7.694 20.593 29.192 24.667 33.944 19.008 23.083 28.965 19.462 41.638 10.636 1.358-.905 8.599-9.73 11.541-23.987 2.489-23.309 5.657-49.106 12.899-71.962zM452.113 405.522c-6.11-16.746-18.782-49.106-23.308-55.895-6.11-9.505-9.731-17.425-15.615-23.761-3.621 20.819-4.299 42.77-4.299 67.21 1.81 5.204 16.745 30.097 16.972 31.907h31.228c-1.357-7.241-2.489-12.672-4.978-19.461z"/>
    </g>
    <defs>
        <clipPath id="clip0">
            <path fill="#fff" d="M0 0H512.106V537H0z" transform="translate(.426)"/>
        </clipPath>
    </defs>
</svg>
